<svg version="1.2" xmlns="http://www.w3.org/2000/svg" viewBox="0 0 2880 1620" width="1880" height="1058">
	<title>85682372133663-ai</title>
	<style>
		.s0 { fill: none;stroke: #7ecdc5;stroke-linecap: round;stroke-linejoin: round;stroke-width: .5 } 
	</style>
	<g id="Wave">
		<g id="&lt;Clip Group&gt;">
			<g id="&lt;Group&gt;">
				<path id="&lt;Path&gt;" class="s0" d="m4227.9 837.9c-306.5-0.1-319.4 50.3-625.8 65.4-179.6 7.4-296.4 11.6-508.5-80.3-283.6-128.4-415.2-275.9-723.7-376-238.1-83.9-388.6-222.2-665-67.1-142.7 85.9-232.3 184.5-371.7 283.2-206.8 139-305.1 282.9-508.5 330.3-190.7 35.1-320.4-49-528.1-113.1-118.7-34.3-186.5-36.7-312.9-34.8-336.2 6.8-170.9-8.1-449.9-7.6"/>
				<path id="&lt;Path&gt;" class="s0" d="m4227.9 837.9c-314.9-0.2-330.1 50.2-645.4 67.3-414.6 19.3-536.8-93-919.3-299.4-256.3-135.7-179.8-59.1-488.9-202.3-383.4-174.2-494-21.6-821.5 219.4-251.2 179-331.5 307.6-528.1 358.3-190.7 39.5-320.1-43.7-528.1-106.9-118-33.6-186.6-36.2-312.9-33.3-341.5 10.1-134.9-3.8-449.9-3.1"/>
				<path id="&lt;Path&gt;" class="s0" d="m4227.9 837.9c-419.1-0.7-690.5 154.1-1095.2 18.2-146.3-51.8-250.1-110.8-410.8-193.3-298.9-151.5-286.7-97.9-469.4-183-182.3-88.2-310.9-175.2-508.5-123.8-134.1 41.3-236.5 124.8-352.1 211.7-316.7 235.4-352.2 321.2-528.1 389.2-183.2 61.2-310.3-2.4-508.5-70.1-279-92.2-373.4-28.5-684.6-49.2-40.6-0.6 4.6 0-136.9 0.3"/>
				<path id="&lt;Path&gt;" class="s0" d="m4227.9 837.9c-308.7-0.6-320.2 40.8-625.8 67.7-386 30.8-519.7-50.3-880.2-218-324.5-148.8-289.7-77-488.9-177.7-181-94.7-310.1-191.8-508.6-151.4-136.6 34.6-235.9 112.8-371.6 211.7-232.2 167.5-322 323.3-528.1 386.5-286.2 72.7-404.3-138.1-821.5-125.4-379.2 14.6-164.7 6-469.4 6.6"/>
				<path id="&lt;Path&gt;" class="s0" d="m4227.9 837.9c-352.9-0.9-440.9 69.7-782.3 78.5-413.7 2.8-652.6-226.8-1036.6-302.1-134.1-27.1-193.2-76.4-352.1-168.6-236.1-133.2-375.5-128.7-625.9 42.4-339.5 237.5-427 440.6-684.5 472-233.4 17-376.1-129-665-134.9-166.5-0.4-56.8 11.5-547.7 12.7"/>
				<path id="&lt;Path&gt;" class="s0" d="m4227.9 837.9c-310.9-1.1-338.8 36.9-625.8 69.5-393.6 41.5-535.5-45.1-899.7-177.4-307.3-109.5-294.8-45.5-469.4-141.1-183-105.9-309.6-234.8-508.6-234.9-316.8 16.5-596 406.9-801.9 535-304.5 173.5-477.7-55.6-821.5-68.3-163.1-2.7-128.6 15.8-567.2 17.2"/>
				<path id="&lt;Path&gt;" class="s0" d="m4227.9 837.9c-319.9-0.7-295.7 26.1-606.3 68-378 47.9-520.7-19.7-880.1-137.7-341.6-110.4-328.5-45-489-128.8-184.4-104.7-308.9-253.8-508.5-284.6-343-34.4-605 393-841.1 533.2-300.1 162-465.8-68-821.4-72.4-169.7 1-164 20.8-547.7 22.3"/>
				<path id="&lt;Path&gt;" class="s0" d="m4227.9 837.9c-316.8-0.8-299.4 23.4-606.3 68.8-374.5 52.2-524.3-14.5-880.1-114.7-341.3-94.3-334.5-30.1-489-112.8-181.4-106.6-309-272.7-508.5-323.6-342.4-68.4-588.7 351.6-821.5 508.2-303.5 187.7-479-42.7-821.5-52.9-172.9-1.4-209 25.3-567.2 27"/>
				<path id="&lt;Path&gt;" class="s0" d="m4227.9 837.9c-316.4-1-297 19.9-606.3 69.5-382.5 58.3-541.3-14-899.7-96.1-321.3-71.2-321.8-11.3-469.4-92.3-187.9-114.3-320.1-306.3-528.1-368.5-346-83.1-568.3 350.6-821.5 513.3-298.9 175.3-467.5-56.2-821.4-57.8-177.2 2.6-230.1 30.7-547.7 31.9"/>
				<path id="&lt;Path&gt;" class="s0" d="m4227.9 837.9c-296.4-1.1-264.4 9-586.7 66.9-381.7 66.1-543.9 1.8-899.7-65.2-341-62.2-342.2 1.7-489-80.9-187.2-117.5-320.3-326.5-528.1-409.1-350-118-560.1 328-821.5 502.2-293.7 179.1-464.3-42.9-801.9-50.6-184-0.1-259.1 35.3-567.2 36.7"/>
				<path id="&lt;Path&gt;" class="s0" d="m4227.9 837.9c-519.8-2.2-608.5 138.3-1075.7 88.6-158.6-18.3-268.4-44.2-430.3-66.6-333.8-43.5-337 22.5-488.9-75.3-274.1-193.8-465-604.7-821.5-409.4-218.3 131.2-298.8 324.8-508.6 468.3-163.1 102.3-280.8 83.3-469.4 22.9-420.1-136.3-427-30.9-899.7-28.5"/>
				<path id="&lt;Path&gt;" class="s0" d="m4227.9 837.9c-285-1.4-252.6 0.5-586.7 68.8-373.9 74.3-561.8 13.1-899.7-21.1-343.2-32.2-347.4 32.5-489-49.9-187.1-123.5-320.2-361.1-528.1-480.3-353.1-180-546.8 287-821.5 479.8-303.5 195.5-466.3-50.6-841-41.6-175.4 7.6-275.3 42.8-528.1 44.3"/>
				<path id="&lt;Path&gt;" class="s0" d="m4227.9 837.9c-540.4-3-566.8 130.2-1056.1 106.2-160.6-9.1-267.1-26.1-430.3-35.4-336.8-16.8-339.6 42.6-469.4-23-273.5-161.9-479-684.8-821.5-560.6-209.8 90.7-301.8 300.2-508.5 472.5-309.6 240.9-481 6.1-821.5-8.2-196.9-3.5-313.9 46.6-586.8 48.5"/>
				<path id="&lt;Path&gt;" class="s0" d="m4227.9 837.9c-222.6-1-227.9-13.4-567.2 66.1-380.7 87.3-584.8 32.2-919.2 27.7-327-1.8-343.2 56.9-469.4-7.3-280.5-168.9-490.3-747.7-841.1-606.3-204.6 97.6-297.3 317.9-508.5 486.1-302.1 222.9-475.9-13.7-821.5-19.2-194.6 1.3-312.3 50.9-567.2 52.9"/>
				<path id="&lt;Path&gt;" class="s0" d="m4227.9 837.9c-230.1-1.2-237-14.2-567.2 66.8-374.5 90.5-578.9 39.8-919.2 49.9-341.8 13.1-353.5 79.1-489-3.8-274.8-194.4-483.5-773.9-821.5-647.6-200.3 91-296.7 320.2-508.5 492.7-302.1 228.2-474.8-9.9-821.5-14.9-198.7 1.8-319.4 54.7-567.2 56.9"/>
				<path id="&lt;Path&gt;" class="s0" d="m4227.9 837.9c-174.3-1-233-15.7-488.9 47.9-491 125.5-582.7 61.3-997.5 89.5-341 26.2-354.7 93.2-489 10.3-280.7-201.2-494.4-831.3-841-681.3-195.6 101-292.3 337.6-508.6 503-297.7 209.5-462.2-31.5-821.4-28.7-198.8 6-311.3 56.9-547.7 59.3"/>
				<path id="&lt;Path&gt;" class="s0" d="m4227.9 837.9c-173.9-1.2-236.2-16.9-488.9 48.2-476.6 125.6-553.3 69.8-958.4 106-346.5 33.8-369.4 97.8-489 50.5-284.3-145.5-500.1-839.4-841-760.4-197.1 63.7-296.6 300.9-508.5 490.3-306.9 256.3-481.1 18-821.5 3.7-211.8-3.7-343.4 59-586.8 61.7"/>
				<path id="&lt;Path&gt;" class="s0" d="m4227.9 837.9c-176.7-1.3-239.5-18-488.9 48.5-484.7 132.5-586.9 74.5-978 127.6-354.4 51.1-373 126.1-508.5 41.3-190.8-140.6-332.9-477.4-547.6-686.5-354.4-318.7-504.4 217-821.5 445.9-292.2 192.4-452.5-51.3-821.5-40.8-197.8 9.9-308.2 61.3-528.1 64"/>
				<path id="&lt;Path&gt;" class="s0" d="m4227.9 837.9c-175.6-1.4-241.8-19.4-488.9 48.8-495.2 140.1-602.9 78.8-997.5 150.8-337.5 65-357.6 135.4-489 52.6-281.3-210-502.3-934.6-841-808.9-188 88.1-290.2 342.5-508.6 516-296.1 216.6-461.1-28.1-821.4-26.5-204.6 5.6-326.6 64.2-547.7 67.2"/>
				<path id="&lt;Path&gt;" class="s0" d="m4227.9 837.9c-178.7-1.6-245.3-20.2-488.9 49.1-482.7 141.3-575.5 85.7-958.4 162.4-345.2 72.6-370.2 142.3-489 97.2-285.6-145.9-506.6-931.5-841-883.9-192.8 47.6-293.2 299.7-508.5 499.1-305.7 264.7-477.3 22.9-821.5 6.9-222.6-4.8-355.7 65.7-586.8 69.2"/>
				<path id="&lt;Path&gt;" class="s0" d="m4227.9 837.9c-177.2-1.7-246-21.2-488.9 49.8-222.2 67-201.9 73.4-625.9 122.4-639.3 76.7-668.8 221.4-821.5 164.7-292.5-148-516.8-983.2-860.6-905.4-188.1 62.6-289.6 321.3-508.5 511.3-300.3 241.7-467.9-3.6-821.5-13-215.9-0.5-346.8 66.6-567.2 70.2"/>
				<path id="&lt;Path&gt;" class="s0" d="m4227.9 837.9c-175.5-1.9-247-22.3-488.9 50.6-247.4 76.7-179.6 68.6-645.4 131.5-635.3 88.8-657 255.5-821.5 173.1-290.7-183.6-517.6-1023.9-860.6-915.7-183.5 77.9-288.6 343.7-508.6 521.1-295 218.9-458.5-28.8-821.4-31.5-211.8 3.5-335 67.1-547.7 70.9"/>
				<path id="&lt;Path&gt;" class="s0" d="m4227.9 837.9c-177.2-2-248.9-22.9-488.9 51.3-290 92.5-172 65.4-645.4 138.5-617.7 97.9-656.7 275.4-821.5 193.7-289-182.1-520.2-1043.9-860.6-942.4-182.1 74.6-288.2 343.4-508.6 521.5-294.6 219-458.9-29.6-821.4-34.1-216.8 2.5-333.9 67.4-547.7 71.5"/>
				<path id="&lt;Path&gt;" class="s0" d="m4227.9 837.9c-175.9-2.1-249.6-23.9-488.9 52-309.5 101.4-151.7 60.3-645.4 145.5-602.2 106.5-656.4 295.2-821.5 214.2-288.4-181.2-522.2-1064-860.6-969.1-179.5 71-290.3 345.3-508.6 522-294.2 219-457.6-30.4-821.4-36.8-218.4 1.5-337.1 67.8-547.7 72.2"/>
				<path id="&lt;Path&gt;" class="s0" d="m4227.9 837.9c-175.6-2.3-250.5-24.8-488.9 52.8-336.1 113-134.7 55.3-645.4 152-619 120.3-662.2 333.8-841.1 221.8-194.8-148.7-346.2-570.6-567.2-847.8-349.8-410-478.8 184.1-821.5 416.3-285.9 174.3-438.6-76.5-821.4-67.1-203.5 9.6-314.4 67.7-508.6 72"/>
				<path id="&lt;Path&gt;" class="s0" d="m4227.9 837.9c-175.6-2.4-251.1-25.1-488.9 53.8-350.8 120.2-135.6 54.5-645.4 155.7-603.8 123.5-662.8 346.6-841.1 236.7-187.3-141.6-333.1-536.5-547.6-826.1-357.2-454.9-482.7 118.6-821.5 368.5-289 194-447.4-56.7-821.5-59.6-214.9 3.3-325.3 66.3-528.1 71"/>
				<path id="&lt;Path&gt;" class="s0" d="m4227.9 837.9c-176.6-2.6-252.1-25.2-488.9 54.7-364.2 127.2-135.8 53.6-645.4 159.5-599.5 128.6-660.2 361.4-841.1 251.5-186.7-139.7-332.6-534.6-547.6-828.9-358.1-462.7-481.3 110-821.5 358.7-288.6 191.7-446.4-58.7-821.5-65.1-214.7 1.5-327.4 64.7-528.1 69.6"/>
				<path id="&lt;Path&gt;" class="s0" d="m4227.9 837.9c-179.5-2.8-254.7-24.8-488.9 55.7-346 123.1-121.4 53-625.9 159-581.8 126.5-672.2 358.6-841 282.2-288-172.3-528.1-1091.1-860.6-1018.5-178.9 60.8-285.9 333.9-508.6 509.8-292.9 212.2-453.4-37.5-821.4-55.8-225-5.8-343.2 62.4-547.7 67.6"/>
				<path id="&lt;Path&gt;" class="s0" d="m4227.9 837.9c-174.8-2.8-253-25.9-488.9 56.7-88.5 32.1-121.9 47.4-195.6 71-125.6 37.3-269.6 55.1-449.8 96-557.5 130.6-651.1 367.8-821.5 292.6-287.8-169.6-529.6-1094.2-860.6-1026.9-178.5 58.3-285.2 330.8-508.6 505.7-292 209.6-453.3-39.5-821.4-61.1-224.6-7.8-347.4 60.6-547.7 66"/>
				<path id="&lt;Path&gt;" class="s0" d="m4227.9 837.9c-176.1-3-253.9-26-488.9 57.7-378.2 139.3-197.1 68.4-625.9 165.6-542.5 127.3-660.5 363.4-821.5 319.3-289.4-124.4-530.2-1065.8-860.6-1044.5-181.6 34.3-285.5 302.3-508.5 489.4-296.8 230.1-457.2-16.8-821.5-50.2-234.9-15.9-361.5 57-567.2 62.7"/>
				<path id="&lt;Path&gt;" class="s0" d="m4227.9 837.9c-174.8-3.1-253.7-25.8-488.9 58.6-87.4 32.5-121.5 48.4-195.6 72.6-118.8 35.9-257.5 53.6-430.3 92.7-540.4 127-657 370.3-821.5 327.9-294.1-121.2-542.6-1089-880.1-1030-177.6 52.8-285.4 322-508.6 491.6-291.7 202.7-450.6-44.3-821.4-73.7-227.4-12.7-347.3 54.6-547.7 60.3"/>
				<path id="&lt;Path&gt;" class="s0" d="m4227.9 837.9c-175.9-3.2-254.3-25.4-488.9 59.6-89 33.3-121.9 48.9-195.6 72.9-120.2 36.4-258.5 53.3-430.3 92.1-559.5 131.6-664.4 398.5-841 328.8-293.9-159.4-542.4-1101.6-880.2-1006.1-175.2 70.7-284.6 337.7-508.5 490.1-180.8 111.1-305.8 58-508.5-21.8-403.5-155-567.1-23.6-841.1-15.6"/>
				<path id="&lt;Path&gt;" class="s0" d="m4227.9 837.9c-165.8-3.1-249.5-23.9-469.4 53.4-85.1 31-120 47.8-195.6 74.1-124.6 40.8-249.7 54-430.2 93.4-544.7 122.9-671.8 387.4-841.1 349.5-293.9-110.9-544.7-1057.9-880.1-1008.6-177.8 47.6-285.2 310-508.6 472.9-291 193.8-448.5-49.4-821.4-87.7-229.5-18.2-350.1 47.2-547.7 53"/>
				<path id="&lt;Path&gt;" class="s0" d="m4227.9 837.9c-166.4-3.2-249.9-23.6-469.4 54.2-84.3 31.1-120.9 48.5-195.6 74.6-125.2 41.1-250.5 53.7-430.2 92.7-540.6 121.9-670.3 393.6-841.1 358.2-287.6-103.6-535.7-1004.5-860.6-1000.6-179.8 24-287.3 280.8-508.5 452.4-295.1 210.7-454.7-28.5-821.5-78.5-240.8-27.5-360.4 40.8-567.2 47"/>
				<path id="&lt;Path&gt;" class="s0" d="m4227.9 837.9c-166.3-3.3-250.3-23.1-469.4 55.1-86 31.8-120.3 48.5-195.6 74.9-125.7 41.2-252.8 53.3-430.2 91.5-539.5 120.6-666.8 398.9-841.1 365.8-287.3-98-537.2-986.4-860.6-986.6-180.1 21.5-286.2 273.6-508.5 442.1-294.6 205.5-453.9-31.4-821.5-85.7-242.4-30.5-362 36.6-567.2 42.9"/>
				<path id="&lt;Path&gt;" class="s0" d="m4227.9 837.9c-176.4-3.5-255.4-23.3-488.9 62.9-344.8 131.4-153.5 61.8-606.3 154.9-532.8 114.3-665.1 399.1-841.1 369.5-287.2-90.9-538.7-954.9-860.6-958.8-181.7 19-285.2 263.6-508.5 427.3-294.2 198.3-453.8-34.9-821.5-93.5-241.5-33.2-363.3 31.6-567.2 37.7"/>
				<path id="&lt;Path&gt;" class="s0" d="m4227.9 837.9c-176.3-3.6-255.1-22.6-488.9 63.6-340.8 129.4-163.7 63.8-606.3 150.5-528.7 108.6-662.5 399.3-841.1 373.2-286.5-83.5-540.2-923.4-860.6-931.1-182.3 16.5-285.1 254.4-508.5 412.6-294 191.1-452.9-38.3-821.5-101.2-241.3-36.2-364 26.4-567.2 32.4"/>
				<path id="&lt;Path&gt;" class="s0" d="m4227.9 837.9c-175.9-3.6-255.1-21.8-488.9 64.2-344.8 130.5-190.3 68.6-606.3 146.3-524.3 102.9-659.8 399.3-841.1 376.8-292.8-78-552.5-926.6-880.1-901.8-179 33.3-285.2 268.8-508.6 408.6-166.6 94.6-286.4 62.9-469.4-13.3-492.5-207.7-585.1-90-899.7-80.8"/>
				<path id="&lt;Path&gt;" class="s0" d="m4227.9 837.9c-176.7-3.7-255.4-20.8-488.9 64.8-338.7 127.7-188.6 68-606.3 142-521.5 97.7-656.2 399.4-841.1 380.5-285.8-69-544.6-860.6-860.6-875.5-183.1 11.2-285.5 236.3-508.5 383.1-293.5 176.8-450.5-44.9-821.5-116.8-240.9-42-365.6 16.1-567.2 21.9"/>
				<path id="&lt;Path&gt;" class="s0" d="m4227.9 837.9c-181.5-3.8-258-18.9-488.9 65.3-103.4 38.8-138.6 55.2-215.2 76.2-124.7 30.6-253.8 36.5-410.7 64.2-517 97.8-646.5 417.6-841 375.8-288.9-99.6-544.1-854.7-860.6-840-179.8 27.1-285.3 248.8-508.6 377.6-167.6 87.4-287.9 53.4-469.4-23.5-491.6-210.7-593.8-104.2-899.7-95.6"/>
				<path id="&lt;Path&gt;" class="s0" d="m4227.9 837.9c-180-3.7-256.3-18.3-488.9 65.4-306.7 113.4-195.9 71.8-586.8 126-500.8 74.7-661.1 372.7-841 387.5-285-14.6-548.7-750.4-860.6-804.1-187.3-13.2-287.9 191.2-508.5 334.2-298.6 178.4-456.2-31.2-821.5-116-253.3-54.4-380.1 1.5-586.8 7"/>
				<path id="&lt;Path&gt;" class="s0" d="m4227.9 837.9c-198.1-4.1-266.2-15.6-508.5 72.7-291.7 108.1-226.4 66.2-586.7 113.7-496.7 71.1-650.6 388.1-841.1 383.6-293.3-43.7-561.5-768.1-880.1-763.5-181.2 20.1-286 222.9-508.6 337.1-170.1 78.5-291.6 40.9-469.4-34.5-487.9-209.4-562.8-117.5-899.7-109.1"/>
				<path id="&lt;Path&gt;" class="s0" d="m4227.9 837.9c-200-4.1-266.8-14-508.5 72.7-295 107.4-243 66.4-586.7 105.8-496.1 62.7-644.5 382.9-841.1 383.7-288.1-33.5-552.5-694.3-860.6-723.1-179.2-0.2-276.9 174.6-488.9 297-298.2 158.1-453.6-39.9-821.5-131.9-253.8-59.2-377.5-9.1-586.8-4.2"/>
				<path id="&lt;Path&gt;" class="s0" d="m4227.9 837.9c-200.7-4.1-267.2-12.5-508.5 72.7-291 104-239.9 64.1-586.7 97.9-492.1 54-640.6 377.4-841.1 383.7-289-24.1-554.6-650.2-860.6-682.3-180.3-3.1-277.4 163.1-488.9 277.6-298.1 148-452.7-44.4-821.5-139.7-254.5-61.9-372.4-14.6-586.8-9.9"/>
				<path id="&lt;Path&gt;" class="s0" d="m4227.9 837.9c-184.5-3.7-257-13-488.9 65.8-317.4 110.8-251.5 68.1-606.3 96.1-485.4 44.4-636.7 370.8-841.1 383.2-290.6-14.3-557.7-604.5-860.6-639.9-180.3-5.9-278.6 151.4-488.9 257.5-298 137.4-451.7-48.9-821.5-147.5-254.3-63.9-378-19.4-586.8-15.2"/>
				<path id="&lt;Path&gt;" class="s0" d="m4227.9 837.9c-140.3-2.9-207.5-8.8-352 24.8-153.2 38.7-226.6 79.7-352.1 105.1-226.7 38.7-425.8-19.4-684.5 84.6-364 157.3-432.6 406.5-684.6 279.2-255.4-145-461.5-501-704.1-551.3-236.3-30.3-355.6 227.3-645.4 271.2-228.2 24.1-359.5-101.6-665-188.5-267.8-72.6-388-29-606.4-25.1"/>
				<path id="&lt;Path&gt;" class="s0" d="m4227.9 837.9c-140.8-2.9-207.9-8-352 25.3-151 37.6-229 78.6-352.1 101.6-231.2 35.9-425.4-30.4-684.5 71.2-343.3 145.5-423.8 387.2-665 297.9-256-110.8-462.2-445.1-704.1-514.5-238.8-51-362.5 188.7-645.5 236.6-231.9 29-369.6-94.4-665-182.6-282.1-81.3-396-39.1-625.9-35.5"/>
				<path id="&lt;Path&gt;" class="s0" d="m4227.9 837.9c-225.6-4.2-268.4-6-547.6 83.7-223.6 70.5-255.9 45-528.1 43.9-460.7 4-608.4 294-821.5 367.3-285.2 72-556.4-372.1-841-472.7-338.8-97.5-439 351.4-977.9 151.3-326.3-126-450.8-202.9-821.5-180.3-77.8 4.9-90.2 5.9-156.5 6.8"/>
				<path id="&lt;Path&gt;" class="s0" d="m4227.9 837.9c-297.8-5.9-317.8 15.2-586.7 94.6-210.7 59.4-297.8 21.9-528.1 21.8-454.4 7.5-591 328.2-821.5 372.6-295.3 32.5-560-378.1-841-441.8-194-31.7-291.6 89.4-508.5 161.5-174.3 52-296.8 21.9-469.4-46.3-546.5-220.5-548.5-166.7-938.9-162.4"/>
				<path id="&lt;Path&gt;" class="s0" d="m4227.9 837.9c-279.2-5.2-307.5 11.5-567.2 87.6-218.3 61.7-279.3 26.8-528 17-452-11-590.1 294-821.5 364.8-295.5 66.9-567.2-303.8-841-383.1-336.3-78.3-433 294.6-978 87.1-574.3-224.7-535.1-177-958.4-173.4"/>
				<path id="&lt;Path&gt;" class="s0" d="m4227.9 837.9c-284.1-4.8-312.2 14.7-567.2 86.1-205.7 55.4-258.1 26.6-508.5 6.5-448.3-30.2-587.9 256.1-821.5 351-298.2 99.8-572.9-227.2-841-318.3-345.1-100.1-446.6 249.2-977.9 56-574.6-215.7-497.7-184.1-978-181.3"/>
				<path id="&lt;Path&gt;" class="s0" d="m4227.9 837.9c-309.2-4.8-331.5 24.4-586.7 89.7-201.2 48.4-274.7 10.6-508.5-11.8-446.1-35.4-566.6 260.2-821.5 353-310.7 93.1-576.9-201.1-841-277.9-341.6-83.4-437.5 221.5-978 21.6-569.9-215.8-543.9-176-958.4-174.6"/>
				<path id="&lt;Path&gt;" class="s0" d="m4227.9 837.9c-428-6.4-491.1 95.9-723.6 108.2-238.7 4.5-415.4-99.3-665-19.2-288.7 104-387.9 333.3-665 348.6-267.7 4-463.2-172.6-684.6-245.5-254.8-74.1-375.3 52.8-645.4 57.9-245.4-2.1-379.8-103.3-704.1-198.7-260.8-74.6-363.9-51.5-606.4-51.3"/>
				<path id="&lt;Path&gt;" class="s0" d="m4227.9 837.9c-267.6-3.7-300.7 14.6-547.6 77-209.9 50.9-264.1 23.6-508.5-19.5-447.2-73.7-550.7 176.6-821.5 317.4-326.7 153.7-596.7-56.7-841-143.1-363.8-117.9-468.8 131-978-42.2-584.7-204.9-499.7-188.7-997.5-189.6"/>
				<path id="&lt;Path&gt;" class="s0" d="m4227.9 837.9c-292.7-3.6-323 24.3-567.2 80.4-346 74.5-530-128.5-841-24.6-326.8 122.5-465.9 482-977.9 334-150.3-46.5-241.2-100-371.6-138-206.1-53.9-312.4-8.8-508.6 4.8-331.9 17.3-477.4-110.9-880.1-216.7-216.6-54.2-323.3-39.3-547.7-39.9"/>
				<path id="&lt;Path&gt;" class="s0" d="m4227.9 837.9c-295.8-3.2-329.1 27.2-567.2 79-218.2 44.3-293.2-5.2-528-54.6-417.9-80.6-524.5 182.9-821.5 325.8-354.8 158.8-574 13.5-821.5-64.2-373.6-108.8-459.6 68.3-977.9-107.2-575.9-198.8-554.4-176.6-978-178.8"/>
				<path id="&lt;Path&gt;" class="s0" d="m4227.9 837.9c-278.1-2.6-314.7 22.8-547.6 73.7-221.9 45.6-287.2 3.3-528.1-58.1-421.1-101.3-521.8 141.8-821.5 302.5-377.9 193.1-574.3 78.7-841-3.5-391.8-114.2-457.8 36.1-997.5-145.8-562-191.7-578.6-166-958.4-168.8"/>
				<path id="&lt;Path&gt;" class="s0" d="m4227.9 837.9c-276.4-2.5-314.5 24.2-547.6 72.6-206.2 39.9-268.7 6.9-508.5-64.3-425.4-121.2-515.2 98.7-821.5 276.2-371.7 207.7-543.5 159.1-821.5 70.6-440.5-137.4-488.6-13.7-997.5-176.7-590.8-192-565.2-174.3-997.5-178.4"/>
				<path id="&lt;Path&gt;" class="s0" d="m4227.9 837.9c-393-3.1-490.8 89.5-704.1 86.5-245.6-13.1-416-168.3-665-125.2-226.1 49.5-299.3 196.9-645.4 375.3-242.7 121.8-386.8 131.9-625.9 64.2-500.2-146.3-428.2-84.4-762.8-148.2-275-55.2-441.2-140.6-762.8-215.2-199.8-43.9-302.5-34.8-528.1-37.4"/>
				<path id="&lt;Path&gt;" class="s0" d="m4227.9 837.9c-281.1-1.9-332.9 30.7-547.6 70.5-363 61.8-521.5-175.2-821.5-129.5-193.2 38.6-293.9 163.7-488.9 285.1-346.6 211.3-486.1 282.6-821.5 188.9-474.6-136.2-386.3-94.4-684.6-155.8-329.7-70.1-636.6-205.9-938.8-245.5-132.8-15.5-205-11.2-391.2-13.7"/>
				<path id="&lt;Path&gt;" class="s0" d="m4227.9 837.9c-281.3-1.5-334.4 32.2-547.6 69.9-366.2 58.9-520.4-187.1-821.5-148.3-190 33.7-287.8 153.5-488.9 280.4-247.2 154.4-377 253.9-586.8 265.8-139.2 3.2-232.9-31.3-410.7-82.3-387.9-112.9-345.2-86-606.4-154.2-416.3-110.7-645.5-220.4-1017-229.2-68-1.2-89.1-0.4-215.2-2.1"/>
				<path id="&lt;Path&gt;" class="s0" d="m4227.9 837.9c-381.7-1.6-493.4 90.7-704.1 78.5-247.9-24.6-416.3-202.5-665-176.3-176.7 27.4-221.9 100.4-723.6 432.8-390.6 252.7-531.9 132.8-997.5-7.4-1227.7-360.9-1178.2-321.6-1603.9-327.6"/>
				<path id="&lt;Path&gt;" class="s0" d="m4227.9 837.9c-281.3-0.8-343.3 36.1-547.6 68.7-373.9 53.1-533.1-224.1-841-183.3-135.1 24.8-223.4 94.4-352.1 188.6-89.6 64.4-88.2 58.8-176 118.8-325.2 227.2-442.6 379.2-841 263.6-258.9-77.3-151.1-67.3-567.3-195.2-942.2-283.7-944.5-254.9-1369.1-261.2"/>
				<path id="&lt;Path&gt;" class="s0" d="m4227.9 837.9c-281.3-0.4-346.2 37.7-547.6 68.1-369.4 48.9-520.5-222.4-821.5-204.7-158.8 17.5-228.9 87.3-528.1 292.6-186.7 132.7-309.9 273.1-508.5 337-266.9 74.7-497.8-78.9-801.9-192.1-365-133.9-786.4-242.1-1017.1-278.7-163.6-23.9-255.8-18.8-469.4-22.2"/>
				<path id="&lt;Path&gt;" class="s0" d="m4227.9 837.9c-280.4-0.1-348.6 39.2-547.6 67.7-212.7 26.5-301.2-30.6-508.5-135.5-262.5-129.9-386.4-118-625.9 51.7-177.2 127.4-150.2 101.2-234.7 163.5-187.7 143.6-318.3 304-528.1 365.4-394.5 97.7-498.4-242.8-1682.1-475.2-216.5-41-306.6-33.5-567.2-37.6"/>
				<path id="&lt;Path&gt;" class="s0" d="m4227.9 837.9c-534.2-0.4-560.7 187.8-977.9-33.3-122.6-65.9-222.9-124.9-352-137-188.9-8.2-289.6 93.3-528.1 253.6-292.5 202.4-458.7 521.9-841.1 441.5-303-72.6-389.9-225-958.4-385.3-547.7-151.4-758.2-135.4-1036.6-139.5"/>
				<path id="&lt;Path&gt;" class="s0" d="m4227.9 837.9c-354.9 0-477.5 86.9-684.5 71.7-254.7-29.4-417.1-241.2-665-258.4-126.2-2.2-212 46.1-313 113.3-286.3 196.1-252.8 168-449.8 358.4-192.1 183.7-349.6 315-625.9 242.8-377-108.4-396-324.4-1388.7-496.6-218.3-36.5-307.4-27.7-567.2-31.2"/>
				<path id="&lt;Path&gt;" class="s0" d="m4227.9 837.9c-261.9 0.3-333.9 37-528 65.3-224.1 29-315.2-30.6-528.1-155.4-260.1-149.5-383.9-154.7-625.9 8.1-30.5 20.9-185.9 126.8-215.2 149-177.9 143.2-306.1 336.2-508.5 444.2-304.4 147.2-544.5-75.1-821.5-221-298.3-153.7-537-201.8-880.1-259.1-234.2-37.9-316.8-27.8-586.8-31.1"/>
				<path id="&lt;Path&gt;" class="s0" d="m4227.9 837.9c-349.6 0.7-477.4 88.6-684.5 70-265.2-35.3-427.1-271.5-684.6-289.2-125.8-1.7-212.2 48.7-312.9 115.3-209.1 140.8-227.1 146.3-371.6 299.9-226 242.3-389.6 432.2-684.6 357.6-255.6-73.1-312.8-198-665-352.1-233.5-98.8-447-135.1-723.7-176.8-218.3-31.6-300.4-21.8-567.2-24.7"/>
				<path id="&lt;Path&gt;" class="s0" d="m4227.9 837.9c-348.7 1-476.2 89.6-684.5 69.6-257-35.9-416.1-264.3-665-301.2-125.5-11.8-211.2 30.9-313 94.6-235.4 152.4-266.3 179.2-391.1 317.4-229 256.3-393.1 455.7-684.6 383.1-255.7-72.8-319.2-211.1-665-368.8-236-103.8-462.6-138.6-743.2-176.1-206.3-26.1-288.1-16.3-547.7-18.6"/>
				<path id="&lt;Path&gt;" class="s0" d="m4227.9 837.9c-355.9 1.1-492.2 97.3-704.1 67.2-253.2-47.7-416.2-281.7-665-311.5-125-8.1-210.8 37.6-312.9 102.2-245.8 159.1-243.5 160.1-449.8 398.3-178.2 203.4-344 385.8-625.9 306-249.2-79.2-323.3-229-665-383.5-224.5-97.6-440.3-129.1-723.7-163.9-207.7-24.1-289.5-13.5-547.7-14.8"/>
				<path id="&lt;Path&gt;" class="s0" d="m4227.9 837.9c-245.1 0.9-317.2 34.7-508.5 64.3-403.2 55.9-514.1-235.1-821.4-312.8-153.8-30.7-260 15-528.1 205.4-190 143.7-314.4 382.4-528.1 542.2-330.8 229.3-575.8-49.4-841.1-220.7-297.9-187.5-510.4-217.7-880.1-262.9-238.3-28.1-315.1-15.1-586.8-15.5"/>
				<path id="&lt;Path&gt;" class="s0" d="m4227.9 837.9c-517.9 2-583.8 202.5-977.9-60.1-378.8-257.5-461.5-301.2-880.1-1.7-195.4 149.4-325.4 411.4-547.7 572.6-327.3 218.7-562.3-67.3-841-249-291.5-184.8-508.9-212.9-880.2-252.7-226.1-22.9-307.3-9.4-567.2-9.1"/>
				<path id="&lt;Path&gt;" class="s0" d="m4227.9 837.9c-521.4 2.2-587.2 210-997.4-75.7-360-254.6-459.6-293.7-860.6-4.8-276 213.4-465.5 721.1-841.1 669.3-334.3-62.7-452.1-393.5-977.9-521-378.2-86.2-765.5-69-1017.1-67.8"/>
				<path id="&lt;Path&gt;" class="s0" d="m4227.9 837.9c-517.5 2.1-590.3 211.9-997.4-76.8-363.6-260.9-447.7-295-821.5-47.8-300.8 205.5-478.7 726.4-841.1 718.7-349.2-27.1-461.4-383.4-977.9-524.3-109.4-28-198.9-39.8-312.9-51.8-417.8-42.4-366.3-21.4-743.3-18"/>
				<path id="&lt;Path&gt;" class="s0" d="m4227.9 837.9c-500.3 1.6-595 205.8-977.9-61.7-141.9-101.5-226.5-174.2-352-218.1-172.5-51.4-287.4 11.8-469.5 129.3-321.2 211.9-485.9 725.6-841 741-355.2-5.4-475.8-385-997.5-527.3-109.8-28-199.5-39.4-312.9-50.7-408.5-39.1-370.4-18-743.3-12.5"/>
				<path id="&lt;Path&gt;" class="s0" d="m4227.9 837.9c-499.6 1.2-597.2 207.6-977.9-60.5-368.4-266-455.3-344.1-841-90.2-298.9 204.6-478.1 740.4-841.1 737.1-355.5-23.7-469.7-400.3-997.5-534.8-371.2-88.3-835.1-55.8-1036.6-51.6"/>
				<path id="&lt;Path&gt;" class="s0" d="m4227.9 837.9c-496.2 0.8-599.9 208.9-977.9-59.3-368.3-268.2-458.5-355.5-841-104.4-298.4 204.3-477.4 747.3-841.1 746.2-355.9-21.8-472-403.9-997.5-537.5-383.2-90.8-913.8-48.2-1036.6-45"/>
				<path id="&lt;Path&gt;" class="s0" d="m4227.9 837.9c-518 0.3-599.2 220-997.4-72.5-341.1-254.9-454.9-355.5-841.1-90.8-282.9 207.8-472.2 761.4-841 740.9-353.2-39.6-468.5-419.1-997.5-543.9-369-80.7-837.5-39.5-1017.1-33.7"/>
				<path id="&lt;Path&gt;" class="s0" d="m4227.9 837.9c-524.5-0.5-599.9 222.4-997.4-70.4-335.5-251.7-449-360.2-821.5-116.7-296.6 203.3-477.1 756.9-841.1 759.6-356.6-18.5-476.8-407.2-997.5-539.7-370.5-87.6-883.3-38.7-1036.6-32.8"/>
				<path id="&lt;Path&gt;" class="s0" d="m4227.9 837.9c-521.7-1.9-602.6 222-997.4-66.9-315.6-235.5-450.5-380.4-841.1-113.1-281.5 207.1-471.7 760.2-841 741.8-353.9-37.4-473.1-412.4-997.5-537.7-368.2-81.6-816-33.4-1017.1-24.1"/>
				<path id="&lt;Path&gt;" class="s0" d="m4227.9 837.9c-514.8-3.1-606.7 220.7-997.4-63.3-306-227.2-451.4-389.4-841.1-123.1-281.2 206.9-471.3 756.3-841 738.6-352.4-36.5-476.5-406.2-997.5-532.1-377.4-84.6-854.4-28.8-1017.1-20.1"/>
				<path id="&lt;Path&gt;" class="s0" d="m4227.9 837.9c-334.8-2.9-472.5 91.1-684.5 79.4-385.8-37.8-555.4-550.2-997.5-362-155.6 71.7-228.9 142-312.9 242.4-226 278.8-397.5 595.9-684.6 582.7-417.6-42.1-483.4-514.3-1290.9-565.5-362.8-21.1-406.5 3.6-723.7 23"/>
				<path id="&lt;Path&gt;" class="s0" d="m4227.9 837.9c-321.9-3.7-456.5 82.8-665 81.1-385.4-18-567.7-518.8-977.9-384-133.4 49.3-231.5 122.1-312.9 210.5-227.9 259.8-397.7 605.5-684.6 625.9-426.8 5.2-509.6-510.5-1330-560.8-355-19.7-404.3 5-723.7 27.3"/>
				<path id="&lt;Path&gt;" class="s0" d="m4227.9 837.9c-331.6-4.9-473.4 88.1-684.5 80.4-384.8-29.9-563.7-540.1-997.5-370.5-145.1 62.4-223.5 133.2-312.9 238.9-225.5 275-396.9 585.4-684.6 572.9-419.5-40.4-505.4-509.7-1310.5-553.8-336-16.7-387.3 7.6-704.1 32.1"/>
				<path id="&lt;Path&gt;" class="s0" d="m4227.9 837.9c-332.3-6.3-472.6 85.2-684.5 79.8-268.7-17.4-432.4-266.5-684.6-372.5-245.6-91.5-469.2 57.6-625.8 240.3-224.9 270.4-396.4 573.6-684.6 561.1-418.6-39.9-524.3-499.4-1310.5-543.9-330.1-16.8-388 8.2-704.1 35.2"/>
				<path id="&lt;Path&gt;" class="s0" d="m4227.9 837.9c-336.6-7.9-469.8 82.2-684.5 79.3-264.3-13.8-415.8-240-665-357.4-241.4-103.4-459.6 18.2-625.9 201.9-231.2 266.1-405.2 584.9-704.1 571.8-405.7-38-554.2-489.7-1310.5-533.9-328.3-17-395.4 9.8-704.1 38.2"/>
				<path id="&lt;Path&gt;" class="s0" d="m4227.9 837.9c-519.6-14.4-623.8 216-1017-51.9-281-196.5-463.6-392-821.5-150.6-286.1 208-472.8 719-860.6 683.2-351.7-48.6-503.2-361-1017-484.9-353.9-79.6-670.9-26.7-978 4.1"/>
				<path id="&lt;Path&gt;" class="s0" d="m4227.9 837.8c-333.2-10.6-471.3 76.3-684.5 78.3-271.6-7.3-431.2-239.5-684.6-352.3-251.8-101.3-459.1 31.1-625.8 217.9-223.5 257.3-394.7 538.5-684.6 525.6-416.3-37.9-591.8-475-1330-515-307.3-14.6-383 12.9-684.6 45.5"/>
				<path id="&lt;Path&gt;" class="s0" d="m4227.9 837.8c-334.7-12.3-470.9 72.4-684.5 76.9-273.7-3.9-428.7-228.2-684.6-343.3-609.7-248.8-773 746.6-1310.4 722.5-419.5-37.5-619.5-469.2-1349.6-505.2-289.6-12.6-372.7 15.2-665 49"/>
				<path id="&lt;Path&gt;" class="s0" d="m4227.9 837.8c-335.2-14.3-470.8 67.2-684.5 74.2-265.2-0.1-419.5-203.4-665-322.6-614.2-276.1-778.7 691.8-1310.5 691.7-417.8-18.8-668-451.9-1349.5-493.7-300.7-16-390 14-684.6 50.3"/>
				<path id="&lt;Path&gt;" class="s0" d="m4227.9 837.8c-515-24.9-637 186.6-997.4-21.5-291.5-174.7-489.9-401.7-841.1-168.1-278.3 198.9-462.2 635.4-841 618.3-364-31.1-580.6-316.9-1075.7-443.4-371.1-89-702.6-16.4-938.9 14.6"/>
				<path id="&lt;Path&gt;" class="s0" d="m4227.9 837.8c-519.2-28-640 180.1-997.4-17.4-141.4-81.4-233.9-159.3-371.7-221.2-474.4-195.4-662.3 333-1017 571.6-323.7 202.2-614.1-11.8-958.4-184.5-351.4-174.1-528.5-202.6-782.4-208.3-216.6-2.7-320.6 25.5-567.2 59.6"/>
				<path id="&lt;Path&gt;" class="s0" d="m4227.9 837.7c-339.7-20.2-466.4 51.6-684.5 66.4-277 11.1-431.4-182.1-684.6-295.6-601.8-248.8-745.7 656.3-1310.4 630.5-486-39.4-763.2-461.7-1486.5-463.8-194.7 1.6-297.2 28.7-528.1 62.4"/>
				<path id="&lt;Path&gt;" class="s0" d="m4227.9 837.7c-525.6-34.7-647.6 165.4-997.4-10.1-142.5-74.8-232.6-147.5-371.7-209.3-600.8-247.1-735.7 633.6-1310.4 607.9-505.3-39.3-791-443.3-1466.9-453.3-209.1-0.8-323.1 30.7-547.7 64.6"/>
				<path id="&lt;Path&gt;" class="s0" d="m4227.9 837.7c-547.1-39.8-652 163.4-1017-17.4-295.4-152.8-497.5-359.3-821.5-146.9-277.5 194.5-454.6 557.5-841 541.1-404.2-29.6-727.5-289.3-1114.9-399.6-348.6-93.5-653.6-16.2-899.7 22.6"/>
				<path id="&lt;Path&gt;" class="s0" d="m4227.9 837.7c-558.6-43.6-655.2 153.9-1017-14.5-310.1-151.3-510.8-358.1-841-127.9-276.9 204.6-446.7 533.1-841.1 506.1-441-41.4-734.5-276.3-1095.3-385.5-348.9-99.6-656.6-18.3-899.7 21.6"/>
				<path id="&lt;Path&gt;" class="s0" d="m4227.9 837.6c-574-48.8-655.7 146-1017-11.5-302-138.4-513.2-349.9-841-122.7-281.2 206.2-444.6 511.5-841.1 486.3-496.5-42.9-759-271-1114.8-378.8-339.4-96.4-646.8-13.3-880.2 26.5"/>
				<path id="&lt;Path&gt;" class="s0" d="m4227.9 837.6c-580.2-53.5-660.2 136.3-1017-8.6-306.5-131.4-516.9-341-841-117.4-290.9 211.5-443.7 497.9-860.6 464.9-548.4-52.9-745-252.8-1095.3-365-341.1-102.6-656.1-13.8-880.2 25.9"/>
				<path id="&lt;Path&gt;" class="s0" d="m4227.9 837.6c-591.5-59-662.9 126.2-1017-6.9-312.1-124.2-520.3-330.7-841-110.6-291.1 210-440.9 469.1-841.1 448.3-588-41-739.8-222.1-1095.3-349.4-342.1-116-646.7-28-899.7 18.4"/>
				<path id="&lt;Path&gt;" class="s0" d="m4227.9 837.6c-604.7-65-666.1 114.6-1017-6.3-316.6-116.1-523.5-319.4-841-102.5-296.6 212.5-438.5 455.3-860.6 430.7-204-14.5-300.1-18.6-489-78.6-228.3-76.1-363.3-172.1-567.2-253.1-343.8-130.4-638-43.5-919.3 9.6"/>
				<path id="&lt;Path&gt;" class="s0" d="m4227.9 837.6c-625.4-71.6-675 109.1-1036.6-12.2-332.7-118.7-519.9-302.1-841-73.9-305.5 225.7-434.3 419.6-841 400.6-205-11.8-322.1-9-528.1-77.4-365.2-127.6-477.2-300.5-880.2-316.4-219.1-5.6-352.5 37.3-567.2 79.1"/>
				<path id="&lt;Path&gt;" class="s0" d="m4227.9 837.6c-652-79.9-670.8 100.3-1036.6-11-340.2-110.6-521.8-291.6-841-66.4-322.8 235.8-433.9 402.1-860.6 383.5-182.8-9-310.9 4.5-528.1-68.3-353-125.5-463.5-302.8-860.6-319.2-218.6-5.8-352.6 38.2-567.2 81.2"/>
				<path id="&lt;Path&gt;" class="s0" d="m4227.9 837.5c-663.8-86.7-673.4 89.4-1036.6-9.7-344.6-101.3-522.9-281.6-841-58.9-316 228.2-431.1 378.1-841 368.2-207.5-6.5-323.4 13-528.1-48-214.7-68.9-348-176.3-547.7-264.6-335.6-141-650.1-38.5-899.7 12.9"/>
				<path id="&lt;Path&gt;" class="s0" d="m4227.9 837.5c-690.9-95.3-679.1 84.5-1056.1-14.9-144.9-40.9-233.7-86.9-371.6-126.3-224.6-59.4-320.9-11.8-469.5 94.4-379.5 277.5-449.8 346.6-880.1 340.7-144.3-1-277.9 25.7-489-39.9-347.6-116.8-458.1-321.8-860.6-339.5-216.9-6.2-350.9 39.7-567.2 85.4"/>
				<path id="&lt;Path&gt;" class="s0" d="m4227.9 837.6c-700.2-102.6-672.5 66.9-1036.6-11-152.5-35.8-245-82.5-391.1-122.9-227.3-58.3-320.1-12-469.5 94-185.5 134.1-328.4 253.2-547.6 307.2-131.4 29-216.4 23.3-352.1 25.4-120.6 3.1-264.5 33.4-469.4-29.2-202.6-67.4-335-180.7-528.1-274.5-314.8-145.4-591.2-55.8-899.7 10.8"/>
				<path id="&lt;Path&gt;" class="s0" d="m4227.9 837.6c-204.4-31.6-340.2-54.6-547.6-34.9-206 22.2-285.6 64.6-508.5 18.7-146.3-32.9-230-72.6-371.6-110.4-233.4-58-322.5-9.7-469.5 93.7-445 317.9-504.6 309.5-899.7 324.6-121.6 6.1-266.5 42.4-469.4-18.5-201.1-66.3-336.1-185.8-528.1-283.2-314.7-152-596.5-57.1-899.7 9.9"/>
				<path id="&lt;Path&gt;" class="s0" d="m4227.9 837.6c-209.4-34.1-354.4-61.6-567.2-40.7-191.1 21.4-271.8 62.2-488.9 23.9-143.4-28.1-234-67-371.6-102.4-244.3-58.8-330.6-3.6-469.5 93.2-420.8 297.2-499.8 296.3-880.1 315.6-148.7 9-273.8 50.3-469.4-1-202.7-59.6-332.5-179.2-528.1-287.3-326-172.6-616.2-69.8-919.3-1.4"/>
				<path id="&lt;Path&gt;" class="s0" d="m4227.9 837.6c-198-33.3-343.8-65.4-547.6-50.4-204.8 18.3-281.4 66.5-508.5 33-143.5-24-231.6-59.7-371.6-94.5-270.7-63-341.9 4.3-528.1 133.7-370.8 255.2-485.6 242.3-821.5 266.3-146.1 12.2-275.3 59.5-469.4 10.1-211.4-61-343.4-193.7-547.7-306.4-308.2-161.6-589.1-63.5-899.7 8.1"/>
				<path id="&lt;Path&gt;" class="s0" d="m4227.9 837.7c-216.7-38.4-362.3-72.6-567.2-56.5-189 18.1-268.4 64.2-488.9 37.2-142.9-20.1-232.7-54-371.6-87.2-273.7-61.7-340.3 3.8-528.1 133-397.2 268.6-538 232.5-841.1 264.7-137.6 16.9-272.6 68.1-469.4 11.3-210.4-68.4-346-211.3-547.6-321.1-295.9-152.1-583.5-51.2-880.2 18.5"/>
				<path id="&lt;Path&gt;" class="s0" d="m4227.9 837.7c-228.6-42-367.3-77.7-567.2-64-187.8 16.2-266.8 64.3-488.9 42.1-152.2-18-247.5-53.7-391.2-85.1-262.1-53.2-324.4 12.3-508.5 136.9-375.4 250.6-510.4 226.5-821.5 262.4-150.8 19.5-277.3 75.1-469.4 26.3-210.7-61.7-343.4-205.8-547.7-326.8-301.9-170.3-583.8-67.8-899.7 8.2"/>
				<path id="&lt;Path&gt;" class="s0" d="m4227.9 837.8c-244.2-46.5-381-85.9-586.7-70.1-178 17.1-262.4 65.3-489 43.6-144.6-16.5-233.7-47.5-371.6-76.6-258.8-51-321.8 10.3-489 123.3-389.4 260.7-535.8 233.2-841 275.2-155.6 23.7-288.3 87.3-489 27.7-339.3-114.5-450.6-410.1-860.6-425.7-204.4-3.7-330.8 44.9-567.2 102.5"/>
				<path id="&lt;Path&gt;" class="s0" d="m4227.9 837.8c-338.6-66.7-446.3-113.4-762.8-50.1-295.6 57.4-425.1 3.9-684.5-49-333.1-63.7-338.2 52.3-665 229.7-286.7 150.5-461.1 132.2-684.6 171.4-121 23.4-186.9 57.6-332.5 55.4-404.1-21.2-543.8-455.8-1017-463-194.3 1.1-316.7 48.5-547.7 105.6"/>
				<path id="&lt;Path&gt;" class="s0" d="m4227.9 837.9c-246.3-50.3-374.1-93.8-567.2-86.8-186 10.8-261.8 64-488.9 56.8-142.2-7.2-232.9-32.8-371.6-61.4-279.6-55-329.4-0.3-508.6 118.6-398.1 260.6-587.5 224.1-860.6 278.3-153.6 33.4-286.1 102.2-488.9 31.3-209.6-82.4-345.1-251-547.7-369.6-279.6-153.1-574.8-38.8-860.6 32.8"/>
				<path id="&lt;Path&gt;" class="s0" d="m4227.9 837.9c-254.4-53.1-385.9-102.3-586.7-92.5-179 12.9-268.8 69.8-508.5 57.5-145.7-10.1-234.6-37.1-371.7-62-259.4-43.4-309.9 22.1-488.9 138.4-379.9 241.7-573.8 210.4-841.1 269.3-152.8 36.6-285.9 108.6-488.9 35.5-208-84.2-346.1-259.7-547.7-380.9-279.9-157.1-573.4-37.7-860.6 34.7"/>
				<path id="&lt;Path&gt;" class="s0" d="m4227.9 837.9c-241-51.1-372.9-102.5-567.2-99.5-184.3 7.3-259.7 62.6-488.9 62.4-142.1-2.8-233.4-25.6-371.6-52.5-272.5-51-324.2-5-489 105.4-393.1 258.9-586.5 235-860.6 296.5-158.5 38.3-289.3 115.2-489 50-192.4-71.8-317.5-223.7-508.5-361.2-303.7-209-566.7-90.1-919.3-1.1"/>
				<path id="&lt;Path&gt;" class="s0" d="m4227.9 837.9c-238.8-51-371.3-106.6-567.2-105.5-183.4 5.6-258.3 61.7-488.9 64.5-141.9-0.8-232.7-22.2-371.6-48.5-275.1-50.3-324.6-4.7-489 105.3-376.7 247.7-569.6 235.1-841 297.6-164.6 40.4-283.2 114.9-469.5 70.3-323.4-93.6-485.6-467.4-841-498.5-230.7-14.5-385.4 54.1-625.9 114.8"/>
				<path id="&lt;Path&gt;" class="s0" d="m4227.9 837.9c-287.5-62.2-448-143.3-704.1-97.7-240.2 47.6-335 79.6-645.4 23-435.7-81.4-377.8-10.6-704.1 174.5-290.6 159.6-472.8 161.1-704.1 219.1-212.1 56.6-360.9 167.9-625.9 0.7-261.4-175.3-395.1-413.5-684.6-437.8-231.8-13.6-379.8 56.4-625.9 118.2"/>
				<path id="&lt;Path&gt;" class="s0" d="m4227.9 837.9c-236.6-51.9-369.8-114.6-567.2-117.5-186.4 2.3-267.8 64.2-508.5 69.3-142.9 0.4-231.7-20.1-371.6-44.5-274.4-45.9-316.3 8.3-489 121.3-375.8 241.4-590.3 225-860.6 307.4-154.4 50-278.9 122.7-469.4 53.6-200.6-83.2-331.5-262.8-528.1-407.8-294.3-205.5-578.5-62.3-899.7 18.2"/>
				<path id="&lt;Path&gt;" class="s0" d="m4227.9 837.9c-225.5-49.8-356.6-112.2-547.6-121.7-299-6.8-302.9 132.9-880.1 30.7-278.9-48.1-321.7-6.9-489 104.9-387.1 253.7-603.4 238.9-880.2 328.4-168.8 57.8-292.4 130.6-488.9 46.1-200.3-96.5-332.3-284.3-528.1-423.4-283.4-188.9-575.5-41.1-880.2 35"/>
				<path id="&lt;Path&gt;" class="s0" d="m4227.9 837.9c-222.8-49.3-355.7-114.2-547.6-125.2-190-5.7-252.3 51.7-489 67.6-393.6 19.6-544.8-155.4-821.4 28.8-408.6 276.4-583.1 270.7-880.2 358.4-179.2 55.3-298.4 141.6-489 87.5-322.2-109.1-485.6-521.8-841-546.2-233.1-9.6-387.6 69.9-625.9 129.1"/>
				<path id="&lt;Path&gt;" class="s0" d="m4227.9 837.9c-220.4-48.8-354.9-116.1-547.6-128.7-189.7-7.1-251.7 50.3-489 67-394.3 20.9-545.6-154.3-821.4 29.7-407.1 276.1-583.5 274-880.2 366.8-178.5 58.2-297.9 145.8-489 88.9-322.4-114-485.1-534.6-841-556.6-233.2-7.9-390.5 74.7-625.9 132.9"/>
				<path id="&lt;Path&gt;" class="s0" d="m4227.9 837.9c-226.8-50.4-366.9-124-567.2-133-257.2-4.3-338.5 121.7-801.9 43.1-328.8-57.1-366-29-528.1 81.2-381.9 257.4-602.4 262.9-880.1 362.5-154.8 58-279.7 139.2-469.4 69.3-322.7-137.2-470.5-550.5-841-560.4-225.8-0.1-377.6 81-606.4 137.3"/>
				<path id="&lt;Path&gt;" class="s0" d="m4227.9 837.9c-217.2-48.3-353.5-120-547.6-135.7-189.4-9.9-248.6 47.3-489 65.8-395.1 23.6-547.9-151.8-821.4 31.4-415.9 283.5-599.6 282.4-899.7 390.9-158.8 59.6-282.2 145.4-469.5 84.5-331.1-127.1-481.6-570.5-860.5-577.9-225.7 1.7-380.7 85.8-606.4 141"/>
				<path id="&lt;Path&gt;" class="s0" d="m4227.9 837.9c-214.9-47.6-352.5-120.8-547.6-137.5-188.5-10.9-249.5 46-489 63.9-397.3 22.7-547.6-153-821.4 30.8-415.4 283.9-598.6 286-899.7 399-167.3 65.2-293.3 154.6-489 76.7-208.6-95.1-344.4-310.4-547.7-472.7-118.5-89.2-188.6-106.5-312.9-104.5-218.1 9.2-369.2 91.5-586.8 144.3"/>
				<path id="&lt;Path&gt;" class="s0" d="m4227.9 837.9c-210.8-46.3-352-121-547.6-138.4-189.3-11.6-248.9 44.9-489 61.3-394.8 20.2-549-153.8-821.4 29.4-415.3 284.8-597.9 289.8-899.7 406.7-168.5 67.5-293.7 156.1-489 75.7-323.2-151.8-470.6-582-841-582.9-226.3 5.7-383.8 94.6-606.4 148.2"/>
				<path id="&lt;Path&gt;" class="s0" d="m4227.9 837.9c-207.5-45.2-351-121.1-547.6-139.3-189.3-12.3-248.4 43.8-489 58.7-395.2 17.9-549.2-155.5-821.4 28-427.9 294.2-612 295.7-919.3 422.4-173.4 74-294.9 151.3-489 57.3-200.1-108.5-331.8-318.1-528.1-476.3-115.9-87.8-185.8-106.2-312.9-101.9-218 13.3-376.2 100.9-586.8 151.1"/>
				<path id="&lt;Path&gt;" class="s0" d="m4227.9 837.9c-204.8-44.3-350.5-121.2-547.6-140.2-264.9-18.2-343.5 109.8-801.9 31.5-577.1-102.5-343 62.1-1017.1 329.4-172.8 67.1-279.1 94.5-430.3 160.7-193.6 87.2-312.9 144.3-508.5 24.4-200.3-133.6-332.6-350.1-528.1-488.3-268.4-174.9-565.4 12.7-860.6 82.5"/>
				<path id="&lt;Path&gt;" class="s0" d="m4227.9 837.9c-201.9-43.3-350.1-121.3-547.6-141.1-263.9-19.2-341.6 107.4-801.9 27.5-570.3-102.4-345.3 59.2-1017.1 332.4-173.5 69.2-278.6 97.8-430.3 165.8-188.8 86.9-304.2 140-488.9 34.5-200.3-125.7-332.2-343.1-528.1-492.5-277.8-197-573.1 1.5-880.2 73.4"/>
				<path id="&lt;Path&gt;" class="s0" d="m4227.9 837.9c-198.4-42-348.7-120.3-547.6-140.4-263.6-19.6-335.9 104.2-801.9 21.4-346.4-63-386.7-32.8-547.7 78.9-383.9 265.1-607.5 291.6-899.7 424.4-188.3 87.8-303.8 140.5-488.9 33.1-199.4-127.1-333.6-347.4-528.1-495.4-278-196.4-576.3 7.7-880.2 78"/>
				<path id="&lt;Path&gt;" class="s0" d="m4227.9 837.9c-196.4-40.9-346.8-118.8-547.6-139-191.3-14.2-247.9 39.6-489 46-391.5 3.9-549.6-163.7-821.4 21-429.4 298.3-607.1 305.9-919.3 445.2-188.2 86.3-301.9 151.1-489 52.3-198.6-116.6-333.2-335.7-528.1-493.2-115.9-87.8-186.3-104.3-312.9-95.4-219 21.4-381.3 116.2-586.8 163.1"/>
				<path id="&lt;Path&gt;" class="s0" d="m4227.9 837.9c-199.1-40.7-357.5-123.3-567.2-139-186.6-9.1-261.1 47.8-508.5 42.9-145-5.2-233.9-28-371.6-52.3-427.3-71.5-305.7 109.7-958.4 372.5-171.6 68-259.8 93.8-410.7 165.1-192.9 92.6-309 125.8-489 8.7-207.5-146.2-345.8-382-547.6-511-257.1-148.5-558.2 49.4-841.1 113.1"/>
				<path id="&lt;Path&gt;" class="s0" d="m4227.9 837.9c-249.8-50.2-442.2-168.7-723.6-130.4-353.8 54-384.6 36.1-723.7-23.9-338.4-56.7-329.5 46.4-665 236.2-283.6 157-445.9 180.7-743.2 324.1-277.8 131.8-415.5 48.5-625.9-167.7-295.5-309.8-377.3-456-704.1-394.4-194.9 41.1-330.3 116.5-508.6 156.1"/>
				<path id="&lt;Path&gt;" class="s0" d="m4227.9 837.9c-192.4-38-354.9-120.1-567.2-136.2-182.7-9.2-251.2 41.6-488.9 34.7-143.5-6.5-232.2-29.3-371.6-55.2-444.3-79-318.7 104.2-978 373.5-172.3 69.4-257.1 94.6-410.7 168.2-192.7 93.4-308.4 125.7-489 5.9-207.7-149.1-345.4-385.3-547.6-512.7-256.4-145.3-557.1 59.6-841.1 121.8"/>
				<path id="&lt;Path&gt;" class="s0" d="m4227.9 837.9c-182.4-35.2-339.9-111.7-547.6-132.2-190.9-14.2-252.4 35.7-489 29-142.3-6.4-232.9-28.9-371.6-55.8-273.9-50.9-333-12.5-508.5 110-368 252.4-586.9 280.7-880.2 418.1-187.5 89.7-302.6 141.4-488.9 28.7-199.8-132.2-333-353.2-528.1-497.2-102-69.4-170.1-88.4-313-69.7-212.2 33.1-376.6 128.1-567.2 169.1"/>
				<path id="&lt;Path&gt;" class="s0" d="m4227.9 837.9c-186.1-35.1-350.4-114.8-567.2-130.6-183.8-9.1-251.3 38.7-488.9 24-145.2-11.2-234.8-36.6-371.6-61.9-435-75.8-329.7 113.4-958.4 366.3-180.9 71.5-267.8 94.8-430.3 172-195.2 93.8-308.9 125.8-489 7.7-200.5-142.3-333.1-361.8-528.1-492.9-266.4-163.3-566.6 53.4-860.6 115.4"/>
				<path id="&lt;Path&gt;" class="s0" d="m4227.9 837.9c-180-33-348.6-111.9-567.2-127.5-185.8-9.1-250.3 37.2-488.9 18.4-155.8-14.6-250-44.3-391.2-68.6-414.4-65.5-320 130.4-958.4 377.2-210.2 80-247.5 83.7-449.8 180.4-185.1 86.9-300.4 95.5-469.5-23.4-199.7-150.7-333.5-368.8-528-486.3-256.2-138.8-557.9 71.2-841.1 129.8"/>
				<path id="&lt;Path&gt;" class="s0" d="m4227.9 837.9c-178.8-32-344.4-108.9-567.2-124.4-191.7-9.3-258 38.3-508.5 10.6-149.7-18.7-235.8-46.7-371.6-69.7-412.2-63.8-323 136.7-958.4 377-175.6 65.2-256.8 86.8-410.7 159-194.4 92.4-307 127.7-489 10.4-199.7-139.2-333.4-356.3-528.1-483.6-266.6-158.6-567 61.2-860.6 120.7"/>
				<path id="&lt;Path&gt;" class="s0" d="m4227.9 837.9c-167.2-29.1-329.6-100.9-547.6-120.1-198.8-13.5-253 31.2-489 8.2-144.9-16.4-234.1-43.9-371.6-70.6-257.7-46.9-336.6 1-489 107.3-368.4 255.5-588.5 271.8-880.1 401-183.2 83.6-297.5 154.3-489 53.7-199.3-116.2-332.5-329.4-528.1-476.6-114.7-80.3-185.3-93.5-312.9-77.2-218.8 33.7-397 136.6-586.8 174.3"/>
				<path id="&lt;Path&gt;" class="s0" d="m4227.9 837.9c-167-28.2-339.7-102.8-567.2-117.9-190.8-9-250.1 32.4-488.9 1.1-156.9-22.7-250.6-55.3-391.2-78.1-409.3-59-329 152.8-958.4 374.8-181.5 62.9-257.7 80.7-410.7 151.1-195.9 91.5-306.4 129.4-489 15.7-199.6-134.8-333.3-347.4-528.1-470.6-266.5-153.4-568.3 67.4-860.6 123.9"/>
				<path id="&lt;Path&gt;" class="s0" d="m4227.9 837.9c-163.9-26.8-322.5-94.4-547.6-113-202.6-13.1-253.8 28-489-3.6-156.1-23.3-250.1-56.3-391.1-80.6-424.5-65.8-347.4 154.8-958.4 362.3-174.7 58.1-263.5 77.5-410.8 142.3-192.2 87-301.3 144.3-488.9 41.4-196.9-118.8-335-330-528.1-460.3-108.6-67.4-179.4-77.9-313-56.8-211 38.3-388.4 134.7-567.2 168.3"/>
				<path id="&lt;Path&gt;" class="s0" d="m4227.9 837.9c-155.7-24.6-318.8-91-547.6-109.3-204-13-255 26.2-489-9.7-157.1-26.3-248.5-59.9-391.1-83.7-419.6-62.2-356.2 167.6-958.4 360-163.8 51.2-254.2 70.1-391.2 127.1-191.4 82.6-306.3 161.4-508.5 54.3-196.2-114.5-335.3-322.6-528.1-450.1-109.3-66.6-180.5-76.1-313-55-208.8 38-392.8 134.5-567.2 166.4"/>
				<path id="&lt;Path&gt;" class="s0" d="m4227.9 837.9c-147.4-22.5-303.5-83.5-528-104.2-220.3-17-265 24.7-508.6-17.2-155.1-28.8-252.4-64.5-391.1-86.9-253.7-35.8-342.1 41.8-489 141.6-357.4 237.1-581.7 218.7-880.2 345-184.2 80.5-295.7 148.9-488.9 50.3-187.5-105.7-324.7-299.1-508.6-427.3-115.3-74.8-185.8-86.2-312.9-69-217.9 34.8-405.8 135.6-586.8 167.7"/>
				<path id="&lt;Path&gt;" class="s0" d="m4227.9 837.9c-149.8-22-309-84.2-547.6-102-208.1-12.6-256.5 22.5-489-21.8-147.7-30.1-238.3-63.5-371.6-86.9-247.3-38.6-343.3 29.5-489 129.6-361.7 244.5-584.9 219.6-880.1 336.7-186.4 77.3-295.9 156.7-489 72.6-313.5-153.9-460.3-536.5-821.4-496.7-223.9 30.6-421.9 136.8-606.4 168.5"/>
				<path id="&lt;Path&gt;" class="s0" d="m4227.9 837.9c-142.4-20.2-279.7-72.8-508.5-95.5-228.5-19.7-268.6 16.4-488.9-23.4-338.5-66-539.2-202.7-841.1-2.1-393.7 269.1-555.2 237.8-860.6 331.5-221.9 72.1-318.1 171.9-508.5 127-320.2-94.2-497-521.1-841-505.8-232.3 18.3-447.4 135.4-645.5 168.3"/>
				<path id="&lt;Path&gt;" class="s0" d="m4227.9 837.9c-142-19.3-287-73.5-528-93.9-222.5-16.2-264.4 16.2-489-31.8-156-35.3-251.2-73.6-391.2-95.9-245.5-33.6-348.6 46.3-489 141.4-348.5 231.6-576 193.3-860.5 292.7-193.9 71.9-297.5 161.7-489 100.2-320.4-120.7-470.9-511.2-841-472.6-223 28.9-427.8 131.4-606.4 159.9"/>
				<path id="&lt;Path&gt;" class="s0" d="m4227.9 837.9c-138.7-18.1-281.6-70.2-528-90.6-230.3-16.6-270.9 15.3-508.6-42.8-157.7-40.4-253.8-78.8-391.1-96.2-244.5-24.5-348.9 70.7-489 163-344.2 219.2-572.8 164.9-860.6 267.9-190.2 72.3-294.3 159.7-489 92.5-199.2-79.6-330.8-258.3-528.1-383.5-116.1-68.7-186.6-78.9-312.9-63.1-218.8 32.4-414.7 126.4-586.8 152.8"/>
				<path id="&lt;Path&gt;" class="s0" d="m4227.9 837.9c-136.2-17-261.2-63.2-508.5-85.7-236.8-19.2-276.3 9.6-488.9-41-350.7-87.9-521.8-205.6-841.1 8.2-383.7 261-550.9 200.1-860.6 277.2-219.1 59.5-304.3 158.8-488.9 141.7-321.9-48.1-508.7-454.9-841.1-455-231.9 8.8-469.6 125.9-665 154.6"/>
				<path id="&lt;Path&gt;" class="s0" d="m4227.9 837.9c-135.5-16.1-252.8-59.9-508.5-82.4-247.5-19.6-282.3 8.7-508.5-52.1-150.4-42.2-239.3-79.8-371.6-100.9-226-30.2-339.6 42.9-489 144.3-343.4 228-559.3 166.1-841 237.5-212.3 59.1-300.1 160.4-489 137.7-312.4-54.7-496.2-433.2-821.5-433.8-231.8 8.2-471.8 122.6-665 149.7"/>
				<path id="&lt;Path&gt;" class="s0" d="m4227.9 837.9c-133.5-15.2-245.8-56.7-508.5-79.8-250.5-20.1-284.7 5.3-508.5-58.7-155.3-46.1-253-88-391.2-104.9-212.9-19.9-323.9 55.8-469.4 153.6-351.4 231.3-573.1 147.4-860.6 222.6-205.5 59.6-296.1 162.2-489 135.4-316.4-61-486.1-430.3-841-409.1-226.1 19.3-448.5 117.2-625.9 140.9"/>
				<path id="&lt;Path&gt;" class="s0" d="m4227.9 837.9c-134.8-14.6-235.7-53.2-508.5-77.4-258.1-21.1-290.4 2.7-528.1-71.5-147.5-47.4-241.6-85.7-371.6-100-407.2-32.4-407.2 277.1-958.4 323.6-153.4 11.5-245.5 7.9-371.6 38.7-211.5 58-304.8 170.8-508.5 139.5-318-65.5-471-413.2-841-384.9-222.3 22-438.9 110.7-606.4 132"/>
				<path id="&lt;Path&gt;" class="s0" d="m4227.9 837.9c-133.9-13.7-226.7-49.8-508.5-75-254.6-21.3-290.4-2.5-508.5-72.1-146.1-48-240.5-88.6-371.6-105.4-217.5-21.4-331.7 61.1-489 165.6-339.9 219.7-558.3 120.6-841 176.5-214.2 48.7-295.3 157.2-489 155.2-314.5-19.7-495.8-365.5-821.5-371.9-230 3.2-483.6 105.3-665 127.1"/>
				<path id="&lt;Path&gt;" class="s0" d="m4227.9 837.9c-138.9-13.5-209.6-45.6-508.5-72.6-268.8-22.9-299.2-5.2-547.6-92.4-139.4-49.6-241.3-89.2-371.6-95.9-393.3-6.7-393.6 310.7-958.4 317.1-155.7 0.6-246.2-7.4-371.6 23.2-199.8 55.4-289.8 165.4-489 150.3-317.2-40-471-368.8-841-347.1-225.5 17.9-442.2 98.8-606.4 117.4"/>
				<path id="&lt;Path&gt;" class="s0" d="m4227.9 837.9c-112.8-10.3-143.7-26.8-352-53.5-191.8-23.7-304-26-410.8-37.6-270-34.8-440.4-174.7-684.5-175.1-286 10.4-376.1 202.7-645.4 283.2-264.9 70.8-448.3-14.5-684.6 47.8-230 68.9-351.1 235.5-645.4 105.5-265.1-126.3-374.8-300.8-684.6-279.1-221.6 19.6-428.6 92-586.8 108.8"/>
				<path id="&lt;Path&gt;" class="s0" d="m4227.9 837.9c-110.7-9.6-141.3-25.3-352-51.8-218.2-26.6-340.3-28.3-449.9-46.6-260.1-49.7-437.6-192.9-684.5-170-276.2 36.9-355.6 230.1-645.4 292.2-257.9 47.4-433.9-39.2-665.1 27.8-221.6 72.3-346.3 237.9-645.4 108.1-255.7-119.4-364.7-277.2-665-260.1-222 16.6-431.9 84.9-586.8 100.4"/>
				<path id="&lt;Path&gt;" class="s0" d="m4227.9 837.9c-107.2-8.8-140.4-23.9-352-50.3-258-31.1-361.4-29.3-489-58.8-251.3-64-422.2-197.7-665-160.6-272.7 52.8-345.8 245.3-645.4 293.3-255.4 33.5-433.2-58.7-665 15.4-214.9 76.8-342.2 240.6-645.5 111.7-273.2-124.6-355.1-264.9-684.5-239.7-212.6 19.4-409.9 76.1-547.7 89"/>
				<path id="&lt;Path&gt;" class="s0" d="m4227.9 837.9c-114.6-8.8-123.4-20.6-352-48.7-143-17.1-235.7-24.5-352.1-38.3-361.5-46-535.7-255.8-841-177.6-216.5 64.6-293 198-508.5 264.6-193.2 52.4-333.8 8.8-528.1-5.6-392.6-22.2-461.2 261.5-801.9 182.3-189.7-51.9-317.9-172.8-508.6-235.6-245.4-71.7-588.7 40.4-801.9 58.9"/>
				<path id="&lt;Path&gt;" class="s0" d="m4227.9 837.9c-115.2-8.3-105.9-17.5-371.6-49.4-189.8-21.9-276-29.2-371.6-44-331.7-57.1-523.3-275.7-841-161.1-206.3 83-274.9 203.9-489 257.8-194.8 41.9-336.8-10.7-528.1-25.8-373.9-21.5-454.2 271.5-801.9 191.5-197.1-53.1-329-177.3-528.1-228-234.5-50.8-571.5 43.7-762.8 59"/>
				<path id="&lt;Path&gt;" class="s0" d="m4227.9 837.9c-0.4 0-646.3-78.2-743.2-94.7-333.2-62.5-520.7-284.4-841-162.2-205.1 86.8-276.1 208.9-489 258.2-194.9 37.8-336.8-20.2-528.1-39.6-373.2-29.4-453.4 269.9-801.9 205-189-42.8-315.9-154.1-508.5-210.2-240.7-61.7-590.8 29.4-782.4 43.5"/>
				<path id="&lt;Path&gt;" class="s0" d="m4227.9 837.9c-0.3 0-632.2-74.4-762.8-100.8-323.4-72.5-514.6-293.9-841-150.4-204.6 97.7-280.1 223.4-508.5 254.9-189.8 19.4-325.8-41.1-508.5-58-360.8-23.4-446.6 283.6-801.9 217.6-188.8-42.4-316-150.3-508.6-200.5-236.8-53.7-586.6 25.3-762.8 37.2"/>
				<path id="&lt;Path&gt;" class="s0" d="m4227.9 837.9c-21.5-1.3-621.9-69.9-782.3-108.2-318.8-83.5-506.7-300.7-841-136.1-195.7 103.5-271 217.1-489 243.1-189.8 15.8-326-48.1-508.5-67.1-357.7-27-448.5 284.8-801.9 233.2-195.3-36.2-327-148.2-528.1-195.2-235.9-47.4-579.4 20.1-743.3 30.3"/>
				<path id="&lt;Path&gt;" class="s0" d="m4227.9 837.9c-49.4-2.7-560-62.6-743.2-101.7-324.2-74.9-507.9-293.8-821.5-172.5-203.2 87-280.8 214.1-488.9 260-184.8 33-320.1-25.5-508.6-59.9-413-67.5-465.1 251.4-821.4 243.9-187.4-12-313.8-109.3-508.6-172.8-255.8-76.6-618.5-7.3-801.9 3"/>
				<path id="&lt;Path&gt;" class="s0" d="m4227.9 837.9c-88.3-4.5-570.1-61.7-762.8-109-322.3-86.2-508.9-311.3-841-150.4-201.2 104.9-282.5 230-508.5 248.5-198.5 9-340.5-69.2-528.1-87.3-345.1-21.7-444.9 302.4-801.9 264.2-194.1-28.4-324.1-133.1-528.1-177.8-240.4-45.6-582.9 4.7-723.7 11.8"/>
				<path id="&lt;Path&gt;" class="s0" d="m4227.9 837.9c-85.1-4-485.8-50.3-704.1-97.4-351.4-79.9-527.1-309.3-841-191.7-204.2 85.3-284.4 216.6-489 263.6-191.6 35.8-333.8-34.2-528.1-75.1-400.5-76.2-460.1 233.1-801.9 269.3-193.8 11.8-323.9-81.4-528.1-148.4-258.5-78.9-602.8-29.3-801.9-20.3"/>
				<path id="&lt;Path&gt;" class="s0" d="m4227.9 837.9c-54.5-2.4-441.3-39.4-704.1-99.5-228.1-54.7-318.8-138.3-508.5-201.1-383.7-115.9-513.5 190-801.9 264.8-311.1 66.7-531.8-164-821.5-63.2-178.9 71.6-290.8 225.9-508.5 266.8-184.7 26.1-310.3-50.3-508.5-122.7-280.1-98-587.2-55.4-841.1-45.1"/>
				<path id="&lt;Path&gt;" class="s0" d="m4227.9 837.9c-106.2-4.2-431.8-41.3-645.4-88-261.8-58.8-302.3-113.4-508.5-197.2-414.6-159.1-537.9 137-821.5 232.6-308.9 89.7-537-140.8-821.5-69.5-187.2 56.5-282.6 201.6-488.9 275.8-194.4 61.1-329.7-6-528.1-82.6-300.9-113.7-551.1-83-880.2-71.1"/>
				<path id="&lt;Path&gt;" class="s0" d="m4227.9 837.9c-94-3.4-391.4-33.9-606.3-80.5-287.1-64.1-309.7-108.7-528-202.3-420.1-171.3-544.5 115.7-821.5 218.1-317.8 102.2-547.3-143-841.1-67.9-193.6 59.4-294.9 218.2-508.5 292.8-186.5 56.5-317.2-4.3-508.5-77.7-301.5-113.7-549.3-93-880.2-82.5"/>
				<path id="&lt;Path&gt;" class="s0" d="m4227.9 837.9c-91.3-3-361.8-29-567.2-72.6-286-63-319.5-101.7-528-198.6-415.1-186.1-536.7 46.1-802 177.4-321.1 144.3-549.1-94.6-841-61.7-210.5 33.9-298.5 182.4-508.5 290.8-167.1 79.2-286.9 61.9-469.4-4.2-293.4-109.2-364.6-148.1-978-131.1"/>
				<path id="&lt;Path&gt;" class="s0" d="m4227.9 837.9c-98.7-3-351.1-26.4-547.6-68.7-465.3-103.9-573.1-288.2-841-278.5-205.9 17.1-320.9 150.8-489 239.4-314.3 151.3-533.8-69.6-821.5-62.2-372.3 26.4-465.4 478.5-958.4 331.6-275.9-87.9-332.8-178-1036.6-161.6"/>
				<path id="&lt;Path&gt;" class="s0" d="m4227.9 837.9c-99.4-2.7-336-22.8-528-64-486.9-109-554.8-272.1-821.5-287-205.2-2.1-324.7 118.8-489 215.5-324.3 179.1-546.3-43.1-841-43.5-395.5 16.2-478.6 494.3-978 350.2-254.1-78.8-351.1-185-1036.6-171.2"/>
				<path id="&lt;Path&gt;" class="s0" d="m4227.9 837.9c-832.5-20.7-1027.5-322.4-1329.9-352.8-215.2-12.2-338.2 113.4-508.6 210.7-314.6 167.7-529.1-38.4-821.5-45.3-399.8 6.4-501.1 494.8-977.9 373.7-251.1-70.4-370.3-198.2-1056.2-186.3"/>
				<path id="&lt;Path&gt;" class="s0" d="m4227.9 837.9c-836.8-18.7-1013.2-323.8-1329.9-355.8-215.3-12.2-338.4 113-508.6 207-320.1 164.7-541.3-56.6-841-46.4-401.1 30.3-491.3 517.8-978 385.5-225.6-66.8-394.9-200.9-1036.6-190.3"/>
				<path id="&lt;Path&gt;" class="s0" d="m4227.9 837.9c-849.2-17-1018.9-341-1349.5-359.8-215.5-2.7-336 128.5-508.5 214-309.2 139.4-523.9-72.8-821.5-57.5-406.3 37.8-495.1 530.3-978 403.2-198.1-57.3-418.3-207.8-1036.6-199.9"/>
				<path id="&lt;Path&gt;" class="s0" d="m4227.9 837.9c-849-14.9-1009-343.2-1349.5-362.8-205.4-2.6-323.8 115.4-489 200.7-318.1 151.7-532.5-70.6-841-49.3-404.7 44.7-497.6 529.5-958.4 425.8-210.2-53.6-440.4-219.9-1056.2-214.4"/>
				<path id="&lt;Path&gt;" class="s0" d="m4227.9 837.9c-860.6-13.6-1018.4-356.4-1369.1-363.2-205.7 5.2-321.8 126.1-488.9 201.6-309.7 125.7-534.5-96-841.1-53.7-406.7 73.2-493.7 563.6-977.9 427.2-167.1-51.3-442.7-215.7-1017.1-211.9"/>
				<path id="&lt;Path&gt;" class="s0" d="m4227.9 837.9c-866.8-12.3-1013.8-353.4-1369.1-363-206 3.5-321.1 121.1-488.9 192.3-299.1 113.3-518.4-92.2-821.5-53.7-418.4 69.9-510.3 567.9-978 449.5-170.8-48.2-465.9-228.2-1036.6-225.1"/>
				<path id="&lt;Path&gt;" class="s0" d="m4227.9 837.9c-287.6-3.6-411.4-24.3-547.6-61.2-287.5-81.3-360.6-136.5-528.1-218.1-419.7-199-543 15.2-801.9 106.4-294 90-514.1-114.4-821.5-54-417.4 98.6-504 588.3-977.9 454.2-150.1-46.5-468.5-229.3-1017.1-227.3"/>
				<path id="&lt;Path&gt;" class="s0" d="m4227.9 837.9c-406.4-4.4-576.6-29.9-1056.1-268.7-442.4-215.2-544.5-4-821.5 86.2-290.3 81.1-510.3-120.3-821.5-50.2-422.6 111.8-508.5 600.8-977.9 467.7-146.2-45.5-476.3-236-1017.1-235"/>
				<path id="&lt;Path&gt;" class="s0" d="m4227.9 837.9c-369.1-3.3-551-13.1-1036.6-258-104.1-51.8-194.7-92.8-312.9-103.4-216.6-10.6-336.2 104.2-508.5 163.4-296.5 88.5-517.6-122.8-841.1-40.5-431 126.2-511.6 613.6-977.9 481.2-237.7-74.4-290.2-167.1-841-234.7-74.6-8.4-97.4-8-176.1-8"/>
				<path id="&lt;Path&gt;" class="s0" d="m4227.9 837.9c-407.2-3.2-517.9-2.7-1075.7-272.2-437.2-206.1-552.3 14.9-821.5 74-280.5 49-499.8-144.9-821.4-39.2-431.5 157.8-505.5 629.9-978 478.9-235.4-81.4-296.1-170.7-841-235.3-63.1-6.5-87.7-6.1-156.5-6.2"/>
				<path id="&lt;Path&gt;" class="s0" d="m4227.9 837.9c-354.7-2.5-495.2 18-1056.1-257.4-444.4-213.6-556.8-16.7-821.5 44.4-279.8 51.9-494.6-143.7-821.5-36.1-442.1 161.5-521.7 637.1-977.9 501.6-251.4-82.1-266.6-166.6-841-243.5-74.4-9.2-97.3-8.9-176.1-9"/>
				<path id="&lt;Path&gt;" class="s0" d="m4227.9 837.9c-355.8-2.6-385.2 12-723.6-103.2-289.5-100.8-436.6-245.3-684.6-248.7-279.6 6.7-356 173.2-665 124.8-233.6-41.4-402.9-125.3-665-10.9-323 151.7-409.3 403.5-665 500.3-241.2 77.4-399.9-84-684.5-169.7-142.1-40.3-415.6-92.2-606.4-92.6"/>
				<path id="&lt;Path&gt;" class="s0" d="m4227.9 837.9c-344.6-2-372.1 22.2-743.2-106-285-101-441.5-252.6-704.1-241.5-272.4 21.2-327.7 163-645.4 100.4-272-57.4-410.4-113-665 15.1-323.5 172.6-406.9 422.5-665 506-239 63.4-392.4-101.4-684.6-185.4-146.1-39.7-413.1-88.3-586.8-88.6"/>
				<path id="&lt;Path&gt;" class="s0" d="m4227.9 837.9c-245.1-0.9-328.4 17.6-528-33.4-302.8-82.5-434.8-166.7-586.8-235-414.7-180.7-546.2 16.2-801.9 26.5-275-0.1-468.7-182.6-821.5-3.8-445.4 239.1-515.2 672.6-977.9 498.3-142.6-57.2-215-108.3-371.6-156.7-124.6-36.3-415.3-95.5-606.4-95.9"/>
				<path id="&lt;Path&gt;" class="s0" d="m4227.9 837.9c-250.3-1.2-330.9 24.3-547.6-33.3-314.2-88.3-405.5-155.7-586.7-234.3-413.5-172.5-536.1 23.8-802 13.4-274.9-21.1-457.5-193.7-821.4 15.7-444.2 267.3-508.6 677.7-978 484.3-143.3-62.1-214.6-111.4-371.6-156.7-126.8-34.5-401.9-88.7-586.8-89.1"/>
				<path id="&lt;Path&gt;" class="s0" d="m4227.9 837.9c-252.4-0.9-327.9 29.1-547.6-27.7-495.9-136-610-306.7-919.3-304.9-212.1 7.5-301 85.4-488.9 63.8-183.5-27.1-308.7-104.2-508.6-85.8-368.2 47.5-640.9 440.5-821.4 573.2-305.2 207.4-481.9-33.5-821.5-130.9-97.4-26.1-392.9-87.3-586.8-87.7"/>
				<path id="&lt;Path&gt;" class="s0" d="m4227.9 837.9c-253-0.6-324.3 34-547.6-22.1-340.7-91.2-419.5-159.5-625.9-242.2-402.8-154.8-517.7 31.4-801.9-21.1-303.3-64.7-442-196.4-821.5 67.2-437.9 311.8-491.5 676.7-977.9 447.3-219.8-106.5-272.6-158.3-782.4-223.9-51.1-5.2-79.3-5.1-136.9-5.2"/>
				<path id="&lt;Path&gt;" class="s0" d="m4227.9 837.9c-255.6-0.3-321 38.8-547.6-16.5-502.4-131.1-614-298.7-938.8-305.3-230.8 1.2-295.1 70.9-508.5 17.7-325-88-442-183.6-821.5 98.6-276.6 208.7-321.4 341.1-508.6 457.6-294.3 165.3-459.8-88.3-821.4-177-62.7-14.4-362.8-74.7-547.7-75.1"/>
				<path id="&lt;Path&gt;" class="s0" d="m4227.9 837.9c-250.8-0.2-309.9 41.1-528-6.3-492.1-116.6-613.2-285.8-938.9-309.5-230.9-11-306.7 55.2-508.5 2.8-324.9-92.6-438.9-200.9-821.5 91-311.8 241.7-339.2 360.6-528.1 478.2-298.7 167.5-460.4-100.7-841-186.7-43.7-9.3-350.1-69.1-528.1-69.5"/>
				<path id="&lt;Path&gt;" class="s0" d="m4227.9 837.9c-249.3-0.2-308.1 45.6-528 0.4-491-110.8-621.3-282.8-958.4-309.5-240.6-13.7-296.2 45.8-508.5-23.4-330.9-113.9-439.1-182.1-802 108.3-338.1 273.6-371.2 407.6-567.2 503.7-287.2 122.1-429.1-142.5-841-220.7-356.5-64-417-58.5-489-58.8"/>
				<path id="&lt;Path&gt;" class="s0" d="m4227.9 837.9c-252.2-0.1-303.5 50.5-528 7.1-475.7-101.8-609.3-263.1-938.9-306.2-241.6-26.6-309.6 28.4-508.5-40.1-182.6-67-310.5-149.2-508.5-88.8-145.5 51.4-246 145.2-430.3 300.3-181.2 156.3-288 354.3-489 424.7-275.8 78.4-397.6-172.7-821.5-244.3-357.6-57.2-373.6-52.4-469.4-52.7"/>
				<path id="&lt;Path&gt;" class="s0" d="m4227.9 837.9c-348.5 0-263.1 88.3-743.2-41.4-268.9-73.7-432.2-197.6-704.1-246.2-144.2-23.1-228.2-14.1-352.1-21.9-128-10.9-188.1-50-332.4-109.7-272.8-107.7-412.5-26.3-625.9 156.3-341.6 296.3-202.2 185.3-410.8 400.4-396.6 393.9-555.7 17.1-977.9-73.5-77-15.2-410.3-59.7-410.8-59.7-47.1-4.3-74.6-4.1-136.9-4.3"/>
				<path id="&lt;Path&gt;" class="s0" d="m4227.9 837.9c-148.1 0-117.6-1-215.1 16.7-221.8 37.8-310.4 7.4-508.5-44.1-237-61-328.6-126.4-547.7-203.2-237.2-79.8-356.2-65.9-528.1-84.3-305.6-39.2-456.3-325.8-821.4-65.9-74 55.4-114.7 93.9-215.2 185.3-280 251.6-170.4 174.4-352 355.4-334.1 318-505.9 66.4-821.5-60.7-171.7-63.6-593.1-99-684.6-99.2"/>
				<path id="&lt;Path&gt;" class="s0" d="m4227.9 837.9c-148.9 0.1-118.5-1.1-215.1 18.3-211.8 40.2-301.9 15.6-489-32.1-327-81.6-443.5-181.9-723.6-251.3-155.3-36.2-242.6-35.6-371.7-55.1-247-42.5-388.5-245.9-645.4-170.2-125.4 44.3-220.2 132.9-312.9 220-343 324.8-25.9 1.2-391.2 393.4-225.2 234.2-358.4 241.2-625.9 92.9-313.6-177.3-280.8-146.4-782.4-212.2-44.4-3.8-73.6-3.6-136.9-3.7"/>
				<path id="&lt;Path&gt;" class="s0" d="m4227.9 837.9c-161.9 0.2-106.9-2.8-234.6 24.1-214.6 41.8-303.3 10.9-489-33-291.4-67.1-431.6-174.1-723.7-250.3-159.3-39.6-245.5-42.4-371.6-69.6-233.5-56.7-383.8-272.5-645.5-171.8-136.9 61-231.1 166.4-371.6 302.8-101.9 97.3-92.4 78.8-176 169.9-170 190-295 360.3-508.5 341.4-229-33.6-346-219.6-665-266.9-0.4 0-390.8-45-391.2-45-41.8-1.6-56.7-1.5-117.4-1.6"/>
				<path id="&lt;Path&gt;" class="s0" d="m4227.9 837.9c-163.7 0.1-105.2-3.8-234.6 26.1-215.5 46.5-302 16.6-489-25.3-222.1-47.6-345.1-116.4-567.2-198.4-264.2-95.3-384.1-95.4-547.7-141.9-129.6-43.4-213-121.8-352-179.6-282-104.4-432.6 110.6-665 339.3-313.6 300.7-420.5 533-684.6 489.7-182.9-40.3-309.9-176.3-508.5-239.8-123.8-35.1-217.1-33.1-391.2-52-147.2-17.1-82.8-17.9-254.3-18.1"/>
				<path id="&lt;Path&gt;" class="s0" d="m4227.9 837.9c-168.2 0.1-104.4-4.7-234.6 28.1-216.9 51.3-302 22.1-489-17.5-223.9-44.5-347.1-112.2-586.8-201.8-281.7-103.4-440.8-115.5-567.2-170.2-280.1-134.9-424-383.6-801.9-3.9-90.3 92.9-131.5 143.3-215.2 222.6-157.4 143.5-212.6 248.7-352 366.1-318.4 248.3-503.7-76.9-821.5-164.3-58.4-14.1-95.8-18.8-156.5-24.5-460.8-39.5-274-34.3-469.4-34.6"/>
				<path id="&lt;Path&gt;" class="s0" d="m4227.9 837.9c-182.5 0.1-94.2-6-254.2 35.1-225.7 54.4-324.1 12-489-18.3-203.5-38.5-344-109-586.7-201.9-280.7-105.7-432.3-128.7-547.7-184-123.4-65.4-205-145.8-332.5-196.9-290-100.4-443.9 190.6-684.6 423.4-246.2 227.1-371.9 520.5-665 445.8-178-54.8-299.3-186.2-488.9-244.4-119.2-31.8-206.2-27.1-371.6-40.8-191.6-17.5-61.2-17.7-273.9-18"/>
				<path id="&lt;Path&gt;" class="s0" d="m4227.9 837.9c-183 0-93.5-7.1-254.2 37.6-228.7 59.8-326.9 16.5-489-10.7-216.8-37.8-379.3-118.8-645.4-221.7-464.2-177.8-397.5-109.7-645.5-287.4-98.6-70-190.5-132.2-312.9-124.9-197.1 26.7-321.4 224.7-508.5 425.2-87.8 90.6-62.1 51.8-156.5 159.3-220.1 256.3-351 440.3-665 273.6-214.4-119.7-273.7-198.6-508.5-220.6-80.9-6.4-121.5-6-215.2-12.1-242-17.7-38.6-18.3-293.4-18.3"/>
			</g>
		</g>
	</g>
</svg>