<svg version="1.2" xmlns="http://www.w3.org/2000/svg" viewBox="0 0 2880 1620" width="1280" height="720">
	<title>213469419484090-ai</title>
	<style>
		.s0 { fill: none;stroke: #80daf1;stroke-linecap: round;stroke-linejoin: round;stroke-width: .5 } 
	</style>
	<g id="Wave">
		<g id="&lt;Clip Group&gt;">
			<g id="&lt;Group&gt;">
				<path id="&lt;Path&gt;" class="s0" d="m4646.9 827c-265.8 0-97-6.6-415 60.2-644.9 127.1-1027.3-108.3-1367.3-232.4-250.7-88.9-490-120.5-586-112.8-339 53.4-557.6 486-1025.4 283.4-410.3-193-552.6-507.8-1025.5-229.8-276.3 169.2-370.8 282.9-634.8 301.8-272.1 16.6-399.3-29.7-634.8-69.3-32.5-1.4-0.7-1.1-170.9-1.1"/>
				<path id="&lt;Path&gt;" class="s0" d="m4646.9 827c-207.7 0.4-121-7.7-341.7 43.4-253.5 56.7-372.2 52-659.3 37.6-457.8-33.5-745-316.6-1294-378.9-339.8-31.1-565.1 440.7-1001 340.3-403.2-112.2-577.6-513.8-1025.5-318.2-476.8 226.1-427.4 448.1-1269.6 293.4-120.2-21.6-83-17.5-268.6-17.6"/>
				<path id="&lt;Path&gt;" class="s0" d="m4646.9 827c-285.1 0.6-184.1 22.2-488.3 70.7-163.1 23.7-249.8 19.2-415 14.7-156.6-3.4-237.1-6.4-415.1-60.2-299.6-95.4-797.3-372.9-1074.3-334.5-338.5 72.6-558.1 518.2-1025.4 317.8-258.8-121-392.4-294-634.8-325.6-380-28.4-564.3 354.1-1025.5 378.6-318.7 13.5-498.8-55.2-634.8-61.3-32.3-0.2-4.3-0.1-146.5-0.2"/>
				<path id="&lt;Path&gt;" class="s0" d="m4646.9 827c-269.4 0.5-142.3 11.3-463.8 65.4-174.7 27.1-261.7 22.9-439.5 20.8-158.8-0.9-241.7-2.7-415.1-52.5-344.6-104.9-802.6-392.1-1074.3-357.1-337.9 70-562.1 531.8-1025.4 342.7-247.1-111-374.8-276.8-610.4-321.4-384.1-52-587.6 331.4-1025.5 357.2-295.1 14.6-427.1-27.9-634.8-53.7-33.4-1.5-13.5-1.4-170.9-1.4"/>
				<path id="&lt;Path&gt;" class="s0" d="m4646.9 827c-265.8 0.7-137.1 10.8-463.8 64.1-193.6 29.1-288.9 21.4-463.9 23.2-152.5 2.6-249.8-4.1-415.1-52.2-382.2-118.5-805.9-421.4-1074.3-367.7-348.3 96.3-565.8 568.8-1049.9 340.6-246.1-125.3-380-296.2-634.8-304.6-234 4.5-390.1 145.2-634.8 265.6-151.3 70.6-218.8 78.9-390.6 83.7-345.4 6.3-370.9-52.6-732.5-52.7"/>
				<path id="&lt;Path&gt;" class="s0" d="m4646.9 827c-298.6 1-306.8 62.1-659.2 82.7-98.5 4.6-137 3.1-244.1 5.2-160.6 4.3-246.1 6.2-415.1-37.2-429.2-118.9-818.5-451.5-1098.7-397.5-338.8 92.1-564.8 567.6-1025.4 377.6-246.8-112.4-376.5-291.2-634.8-315.1-233.2-9.4-389.1 120.1-634.8 241-159.6 75-228.9 84.5-390.7 90.1-372.1 10-384.5-46.7-756.9-46.8"/>
				<path id="&lt;Path&gt;" class="s0" d="m4646.9 827c-285.3 0.8-302.7 55.9-634.7 79.6-111.8 6.7-154.7 5-268.6 8.9-160.3 6.7-246.6 11-415.1-29.6-433.2-114.1-796.1-451.6-1074.3-423.5-339.2 63.1-572.7 573.6-1025.4 416.3-248.9-98.4-374-283.3-634.8-322.8-373.7-37.3-552.1 292.7-1025.5 311.2-398.3 13.3-395.1-40.1-781.3-40.1"/>
				<path id="&lt;Path&gt;" class="s0" d="m4646.9 827c-339.1 1.1-226.9 64.5-854.5 86.9-153.2 6.3-236.9 22.5-415-9.4-449.5-90.9-774.2-431.3-1074.3-457.5-350.1 0.5-592.7 576.9-1049.9 450.5-243.8-80-358.2-256.7-610.4-321.7-384.4-79.8-601 260.7-1025.4 283.6-466.1 20.1-409.9-32.6-830.2-32.4"/>
				<path id="&lt;Path&gt;" class="s0" d="m4646.9 827c-277.7 1-267 46.3-610.3 74.5-114.2 8.3-158.5 7.6-268.6 13.6-149.3 9.6-237.9 25.2-415.1-7.7-463.2-97.7-783.4-470.5-1074.3-473.3-341 28.4-583 586.5-1025.4 473.8-243.7-75.4-353.5-253.4-610.4-320.8-382.8-81.5-597.4 245.6-1025.4 266.7-474.4 18.6-424.9-27.1-830.2-26.8"/>
				<path id="&lt;Path&gt;" class="s0" d="m4646.9 827c-272 1.2-260.2 44.1-610.3 72.8-119.2 8.8-156.3 7.9-268.6 15.6-146.2 11.5-238.8 29.7-415.1-0.2-458.6-89.7-755.1-460.1-1049.8-493.4-344.8-7.1-588.3 578.9-1025.5 502.1-246-57.4-351.5-237.6-610.4-319-383.2-102.1-616.3 216.3-1025.4 242.2-488.1 21.8-440.9-20.5-854.6-20.1"/>
				<path id="&lt;Path&gt;" class="s0" d="m4646.9 827c-271.3 1.3-247.8 41.6-610.3 71.1-108.8 8.1-144.4 8.2-244.2 15.5-155.2 12.8-240.6 35.2-415 13.1-481-73.6-773.1-479.5-1074.3-517.4-347.1-10.9-589.1 591-1025.5 524.5-246.3-52.3-346.8-233.7-610.4-317.6-382.1-103.5-612.5 201.9-1025.4 225.4-513 20.5-442-15.2-854.6-14.6"/>
				<path id="&lt;Path&gt;" class="s0" d="m4646.9 827c-203.8 1.1-169.4 13.4-415 48.5-204.8 27.6-305.9 25.1-463.9 40-295.2 31.4-462 58.5-781.3-119.2-418.6-242.2-575.9-494.5-854.5-357-288.7 162.5-503.2 550.5-854.6 504.5-299.5-57.7-429.4-354.4-805.7-339.7-302.2 24.1-485.7 213.2-830.1 231-561.8 20.4-425.1-9-854.6-8.1"/>
				<path id="&lt;Path&gt;" class="s0" d="m4646.9 827c-255.9 1.6-237.4 37.9-610.3 67.6-126.3 9.5-171.2 10.4-268.6 20.8-283.2 33.9-458.7 72.3-781.3-110.8-277.5-164.3-453.5-363-659.2-412.9-222.9-33.6-375.3 189.1-634.8 404.7-477.1 380.2-639.9-15.2-1001.1-150.7-384.5-127-618 154.5-1025.4 181.8-518.8 23.9-480.5-1.7-879-0.5"/>
				<path id="&lt;Path&gt;" class="s0" d="m4646.9 827c-250.4 1.7-227.8 35.7-610.3 65.9-126.5 9.5-174.6 11.3-268.6 22.4-138.4 18.4-227.4 43.8-390.6 31.5-486.2-50.9-744.5-486.7-1049.9-565.4-350.4-57.2-599.3 594-1025.5 584.5-247.3-21.8-341.7-207.2-610.4-309.4-233-78.3-400.4-12.9-634.8 72.2-357.8 128.7-381.6 95.5-1269.6 98.3"/>
				<path id="&lt;Path&gt;" class="s0" d="m4646.9 827c-193.1 1.5-175.2 15.4-415 45.4-221.2 26-323.6 22.3-488.3 46.4-154.5 24.8-249 49.5-415.1 29.6-606.5-91.9-827-785.5-1245.2-512.6-281.9 201.6-494 579.8-830.1 534.7-291.7-58.6-407.1-353.7-805.7-339.4-312.9 22.5-425.5 174.6-879 186.4-725.6 22.9-176.7 7.8-781.3 9.5"/>
				<path id="&lt;Path&gt;" class="s0" d="m4646.9 827c-198.5 1.7-180.2 18-439.4 47.1-219.7 23.3-321.9 20.1-488.3 49.1-338 63-513.3 60.2-805.8-142.2-417.6-301.3-540.6-565.8-854.5-338.1-292.5 229.8-506.4 614.7-854.5 527.5-261.3-82.6-400.2-363.9-805.7-327.5-166.5 20.2-275.5 70-463.9 122.5-188.6 49.8-243.8 40.3-415.1 47.2-372.6 17.2-107.1 12.4-732.5 14.4"/>
				<path id="&lt;Path&gt;" class="s0" d="m4646.9 827c-247.7 2.3-90.5 19.3-708 68.3-390 32.7-596.8 182.6-1001-90.5-270.4-190.9-436.4-417.1-634.8-456.4-229.2-20.8-388.9 247.2-659.3 485.3-465.4 390.9-606.6-37.3-1001-161.4-236.8-64.5-406.4 5.7-659.2 76.4-192.4 52.1-252.4 50.5-415.1 54.9-270.8 9.5-133.6 20.9-781.3 23.4"/>
				<path id="&lt;Path&gt;" class="s0" d="m4646.9 827c-185.2 1.9-174.4 16.5-415 42.5-220.6 22.4-328.2 20.1-488.3 49.1-142.2 28.3-247.4 62.4-415.1 49.5-599.1-66.9-813.3-819.6-1220.8-575.4-290.3 196.6-509.6 637.5-854.5 609.9-285.9-43.5-392.2-342.9-805.7-348.5-162.2 3.3-277.3 43.6-463.9 91.8-207 51.8-271.2 46.5-415.1 50.5-243.1 9.3-221.4 28-781.3 30.6"/>
				<path id="&lt;Path&gt;" class="s0" d="m4646.9 827c-180.8 2.1-179.1 17.4-415 41.5-125.4 12.1-176 13.8-293 23.6-388.8 35.3-600.3 206.7-1001-73.5-283.8-208.2-451.5-466.6-659.3-488.8-227.8 1.6-389.6 286.6-659.2 527.8-457.6 389.4-586.7-50.7-1001-172.3-348.6-88.4-512.6 92.9-1025.5 103.1-238.1 7-280.3 35.8-805.7 38.6"/>
				<path id="&lt;Path&gt;" class="s0" d="m4646.9 827c-179 2.2-175.7 17.4-415 40.5-127 11.6-174.3 12.8-293 23-301.5 28.3-378.2 101.3-610.4 89.9-502.1-43-742.3-623.3-1049.9-658.8-345.6 0.3-603.7 721.6-1025.4 702.6-235.8-28.4-310.8-218.7-610.4-321.6-352.8-107.3-520.3 68.1-1049.9 78.6-229.9 7-333.1 43.6-805.7 45.8"/>
				<path id="&lt;Path&gt;" class="s0" d="m4646.9 827c-175.3 2.4-178.7 18-415 39.6-221.9 19-329.5 17.5-488.3 51.4-303 71.1-480.3 136.6-781.3-68.2-400-288.9-544.2-673.1-854.6-481.2-284.2 199.6-499.7 650.5-830.1 667.1-287.5-7.9-381.9-316.5-805.7-357.9-292.4-19-412.5 87-879 96.2-229.2 7.3-359.2 50.7-805.7 53"/>
				<path id="&lt;Path&gt;" class="s0" d="m4646.9 827c-182 2.7-177.9 19.6-439.4 40.8-128.5 9.8-187 11.5-293 22.1-273.4 30.2-358.4 106.4-586 100.9-505.6-31.5-740.4-642.2-1049.9-681.8-352.3-2.8-618.6 774.4-1049.8 735.2-225.6-38.1-303.3-228.5-610.4-329.1-232-67.4-403.7-19.8-659.2 23.5-222.2 36-268.2 23-415.1 30.4-215.9 14.4-360.9 55.7-756.9 58"/>
				<path id="&lt;Path&gt;" class="s0" d="m4646.9 827c-174.2 2.8-172.7 18.3-415 38-133.7 10.2-184 11.1-293 20.9-295.6 29.9-375.6 112.4-610.4 109.3-507.2-26.3-739.6-649.8-1049.9-691-351.6-3.9-620.4 784.6-1049.8 751.7-224.1-35-300.3-225.2-610.4-330.7-231.1-70.4-403.7-28.5-659.2 9.8-210.2 30.2-258.3 20.9-390.7 25.8-225.5 12.3-377.7 63.6-781.3 66.2"/>
				<path id="&lt;Path&gt;" class="s0" d="m4646.9 827c-173.6 3-170 18.4-415 37.2-204.7 14.6-313.6 14.3-463.9 46.4-272 64.7-479.6 183.4-805.7-44-389.1-289.4-530.8-690.3-830.1-526.9-288.2 184.4-516.1 694.4-854.6 729-282.5 5.7-370.3-301.2-805.7-367.7-268.1-32.9-382.8 40.5-879 51.8-237.4 9.4-396 71.3-805.7 74.2"/>
				<path id="&lt;Path&gt;" class="s0" d="m4646.9 827c-172 3.2-169.3 18.8-415 36.4-210 14-328.7 13.3-488.3 52.5-143.1 38.6-250 86.5-415.1 88.1-611.6-18.8-801.3-924.4-1220.8-653-288.6 212.4-517.8 717.4-854.5 729.5-269.4-12.9-364.4-312.6-805.7-375.3-159.1-18.1-282.4-1-463.9 19.8-248 27.6-277.4 16-415.1 21.8-230.1 14.4-393.5 77.2-781.3 80.2"/>
				<path id="&lt;Path&gt;" class="s0" d="m4646.9 827c-171.4 3.5-168 19.1-415 35.7-140.3 8.7-187.8 9-293 18.8-290 30.8-374.2 121.8-610.4 126.6-495.7-10.2-721.6-631.3-1025.4-714-350.8-51.4-627.7 776-1049.9 797.9-228.9-7.7-291.7-195.6-610.4-327.2-235.4-89.3-417-65.4-683.6-40.6-255.8 22.6-272.8 8-415.1 17.4-229.5 20.2-389.4 82.3-756.9 85.4"/>
				<path id="&lt;Path&gt;" class="s0" d="m4646.9 827c-170.7 3.7-175.3 21.2-439.4 36.5-127.2 7-174 7.9-268.6 16.7-288.9 30.8-373.9 123.5-610.4 130.1-496.5-6.7-721.5-633.6-1025.4-716.5-351.3-51.3-627.6 782-1049.9 810-227.4-4.5-288.9-190.5-610.4-327.3-201.2-79-359.5-77.7-586-62-432.8 31.5-372.3 8.6-537.1 23.8-223.9 25.3-385.6 85.5-732.5 88.7"/>
				<path id="&lt;Path&gt;" class="s0" d="m4646.9 827c-172.2 4.1-165.5 19.8-415 34.6-194.9 10.6-312.3 10-463.9 45.7-293.6 77-486.5 203.8-805.7-22.8-387.1-294.4-527.9-725-830.1-552.6-284.7 190.4-520.2 725.9-854.6 781.8-277.9 22.4-351.2-275.7-805.7-379.4-137.7-27.7-247.3-27.6-390.6-21.5-598.7 28.5-145.1 5.3-488.4 14.7-248.8 12.2-413.9 95.6-805.7 99.5"/>
				<path id="&lt;Path&gt;" class="s0" d="m4646.9 827c-170.1 4.3-165.9 20.2-415 34-129.5 6.6-188.6 7-293 16.7-288.6 30.9-371.8 126.8-610.4 136.9-498.1 0.3-721-637.9-1025.4-721.4-349.4-50.7-630 794.3-1049.9 834.3-223.9 1.5-284.1-180.8-610.4-327.6-198.8-83.4-357.9-92.4-586-86.5-486.7 14.5-392.1 2.3-512.7 11.5-234.2 23.8-396.7 98.3-756.9 102.1"/>
				<path id="&lt;Path&gt;" class="s0" d="m4646.9 827c-168.4 4.6-166.4 20.6-415 33.4-133.8 6.3-189.9 6.5-293 16-285.6 30.6-372.9 128.5-610.4 140.4-498.5 3.8-721-640.3-1025.4-723.9-349.3-50.5-630.5 800.5-1049.9 846.5-334.7 6.8-346.9-429.6-1196.4-426.6-515.4 4.4-463.5-0.4-561.5 12.3-226.9 34-381.6 98.3-708.1 101.9"/>
				<path id="&lt;Path&gt;" class="s0" d="m4646.9 827c-163 4.7-170.1 21.2-415 32.9-137.9 6-190.1 5.9-293 15.3-287 30.7-370.7 129.8-610.4 143.3-499.5 7.1-720.5-641.5-1025.4-725-354.9-50.8-646.5 844.2-1074.3 858.5-313.3-18-351.9-424.4-1172-439.4-480.5-6.2-486.6-2.6-561.5 7.5-230.7 36-381.6 103.1-708.1 106.9"/>
				<path id="&lt;Path&gt;" class="s0" d="m4646.9 827c-163.6 5.1-170.3 21.7-415 32.6-138 5.6-190.4 5.4-293 14.6-389.3 41-607.4 301.6-1001 2.9-273.1-220.3-429.3-523.2-634.8-578.1-230-31.3-392.2 288.9-683.7 619.1-453.7 496.4-559.5 120.9-976.6-80.7-191.1-87.2-350.3-113.2-586-122.7-466.3-16-507.2-7.8-610.4 10.5-232 44.9-363.6 98.2-659.2 101.8"/>
				<path id="&lt;Path&gt;" class="s0" d="m4646.9 827c-160.4 5.3-165.4 20.6-390.6 31.3-131.3 5.6-187 4.8-293 12.7-301.9 26.6-368.1 120.6-610.4 145.2-503.8 31.4-721-587.8-1025.4-705.4-359.1-93.2-646 799.8-1074.3 863.8-313.6 18.4-369-400-1171.9-456.3-61-3.8-437-25.2-586-4.4-235 38.1-381.4 109-708.1 113.1"/>
				<path id="&lt;Path&gt;" class="s0" d="m4646.9 827c-158 5.5-168.3 21.1-390.6 31.1-210 8.3-328.5 3.6-488.3 42.9-253.8 69.9-478.1 224.9-805.7-3.1-386.8-289.4-526.7-729-830.1-544.1-291.3 206.4-540.7 777.7-879 832.5-313.3 22.3-364.4-390.5-1171.9-465.3-111.5-9.4-377.7-23.3-488.4-20.1-256.4 14.8-422.3 121.1-805.7 126.1"/>
				<path id="&lt;Path&gt;" class="s0" d="m4646.9 827c-162.2 6-171.3 22.9-415 31.8-119.6 3.8-172 3.5-268.6 10.3-299.9 25.3-367.4 120.1-610.4 146.2-504.2 34.4-721-580.7-1025.4-693.9-357.1-87.6-647.5 802-1074.3 876.6-309.1 25.9-373.8-389.4-1196.4-477-836-82.2-675.9 98.1-1269.6 106"/>
				<path id="&lt;Path&gt;" class="s0" d="m4646.9 827c-172.4 6.8-164.7 23-415 31.5-120.1 3.6-172.3 3.1-268.6 9.7-305.1 25.1-362.8 119.1-610.4 146.2-504.7 35.5-721.2-576.1-1025.4-686.5-356.4-84.4-647.1 801.7-1074.3 881.5-304.9 29.3-380.4-380.8-1196.4-485.6-807.1-96.8-679.5 95.1-1269.6 103.2"/>
				<path id="&lt;Path&gt;" class="s0" d="m4646.9 827c-164.2 6.8-171 23.6-415 31.5-141.8 3.8-190.6 2.7-293 10.8-289 27.6-364.3 126.7-610.4 143.7-500.4 14.1-720.4-611.1-1025.4-678.5-348.8-32.3-651.7 842.5-1074.3 887.8-287.3 4.6-384.9-381-1196.4-495.9-764.1-101.7-659.4 92.7-1245.2 100.6"/>
				<path id="&lt;Path&gt;" class="s0" d="m4646.9 827c-168 7.4-170.3 23.9-415 31.4-136.1 3.4-189.7 2.2-293 10-289.9 26.7-362.8 124.8-610.4 141.5-499.9 13.8-720.9-600.6-1025.4-663.1-347.4-27.1-652.6 836.1-1074.3 886-274.8 7.7-400.9-370.9-1196.4-500.9-742.2-114.7-663.5 87.3-1245.2 95.1"/>
				<path id="&lt;Path&gt;" class="s0" d="m4646.9 827c-164.7 7.6-172.9 24.4-415 31.3-134.8 3.2-189.4 1.8-293 9.3-298.2 26.3-356.8 122.4-610.4 139.3-499.5 13.3-721-590.1-1025.4-647.7-347-22.3-652.9 829.6-1074.3 884.2-276.8 11-405.4-359.5-1196.4-506-721.6-126.7-667.9 81.9-1245.2 89.6"/>
				<path id="&lt;Path&gt;" class="s0" d="m4646.9 827c-163.9 7.9-174.4 24.8-415 31.2-128.6 2.8-188.3 1.3-293 8.5-289.6 24.6-360.9 120.8-610.4 137.1-499.1 13-721.1-579.4-1025.4-632.3-345.3-17.2-653.7 823.3-1074.3 882.4-263 13.6-425.1-351.3-1196.4-511-703.4-138.5-670.2 76.6-1245.2 84.1"/>
				<path id="&lt;Path&gt;" class="s0" d="m4646.9 827c-162.9 8.2-176.2 25.2-415 31.1-127.5 2.5-171 1.1-268.6 6.1-305 19.8-357.8 109.3-610.4 134.4-518.3 32.8-739.7-564.8-1049.8-613.3-343.5-11.9-654.5 815-1074.3 878.5-257.8 16.4-439.1-341.2-1196.4-514.5-687.9-150.2-669.6 70.3-1245.2 77.7"/>
				<path id="&lt;Path&gt;" class="s0" d="m4646.9 827c-161 8.5-179 25.6-415 31.1-121.8 2.2-170 0.7-268.6 5.3-305.1 18.3-357 105.8-610.4 129.5-517.1 30.2-740-547.2-1049.8-588.4-342.6-4.8-654.3 799.7-1074.3 866.6-189 14.2-232.3-96.7-610.4-291.6-192.3-97-372.2-166.7-586-220.4-676.4-162.3-663.9 60.9-1245.2 67.9"/>
				<path id="&lt;Path&gt;" class="s0" d="m4646.9 827c-161.4 8.9-171.9 24.3-390.6 30.6-113.6 2.5-166 0.7-268.6 3.9-321.1 13.4-354.1 92.8-610.3 123.6-518.8 45.5-741-490.5-1049.9-558.7-348.4-38-649.5 743.1-1074.3 848-193.3 32.5-239.6-71.2-610.4-264.4-189.1-96.7-372-173.5-586-234.3-680.5-185.7-689 44.8-1269.6 51.3"/>
				<path id="&lt;Path&gt;" class="s0" d="m4646.9 827c-158 9-174.6 24.6-390.6 30.6-113.2 2.3-164.5 0.4-268.6 3.1-321.5 12-353 89.6-610.3 118.9-501.6 41.1-722.2-440.3-1025.5-529.8-353.3-68.5-646.4 686.1-1074.3 825.6-199.3 50.4-256.4-50-610.4-235-237.7-122.3-420.2-194.3-585.9-246.8-687.5-210.4-713.9 27.3-1294.1 33.4"/>
				<path id="&lt;Path&gt;" class="s0" d="m4646.9 827c-152.7 9.1-179 25-390.6 30.6-126.5 2.4-183-0.4-293 3.2-306.3 13.6-353 95.5-610.4 115.1-497.2 21.9-722.3-461.5-1025.4-512.1-346.1-21.5-649 715-1074.3 825-188.1 34.7-225.9-50-634.8-255.3-1145.4-568.5-1167-213-1831.2-206.5"/>
				<path id="&lt;Path&gt;" class="s0" d="m4646.9 827c-156.5 9.6-188 27-415 31-125.2 1.4-165.2-1-268.6 1.9-307.2 11.8-351 91.7-610.4 109.8-495.8 19.1-721.7-444.1-1025.4-486.1-344.7-12.8-648.2 699-1074.3 811.3-182.1 35-217.8-36.9-634.8-243.3-1196.2-587.8-1118.1-230.9-1831.2-224.6"/>
				<path id="&lt;Path&gt;" class="s0" d="m4646.9 827c-157.2 9.9-189.9 27.2-415 30.8-201 1.9-311.2-7.2-463.9 19.4-250.8 50.7-460.9 166-805.7-5.5-392.1-208.3-537.9-504.3-854.6-283.7-285.1 216.3-530.6 623.9-854.5 709.5-240.6 47.4-269.7-98.6-1098.7-437.6-722.9-289.6-765.8-37.5-1367.3-32.9"/>
				<path id="&lt;Path&gt;" class="s0" d="m4646.9 827c-155.2 10-192.9 27.4-415 30.6-204.6 1.6-311.1-8.4-463.9 16.6-231 44.1-452.5 158.9-805.7-7.8-376.6-189.4-531.9-455-830.1-269.4-281.1 192.7-526.8 589.9-854.6 696.6-170.1 45.1-247.5-11.1-439.5-102.5-1168.1-549.9-1101-506.1-1733.5-391.5-138.3 23.6-203.7 26.7-317.4 27.4"/>
				<path id="&lt;Path&gt;" class="s0" d="m4646.9 827c-157.7 10.4-194.4 27.6-415 30.4-125.2 0.8-184.1-2.7-293-0.8-302 9.2-338.4 84.6-610.4 88.9-484.1-6-720.1-404.7-1025.4-389.4-335 46.9-651.7 664.2-1074.3 751.6-136.6 19.7-167.6 3.2-708.1-245-199.7-92.8-280.4-133.4-415-191.5-665.8-281.6-717.2-47.1-1318.5-44.2"/>
				<path id="&lt;Path&gt;" class="s0" d="m4646.9 827c-153.8 10.4-197.8 27.8-415 30.3-116.1 0.4-159-2.5-268.6-2.3-398.1 4.5-568.9 182.9-1001 0.9-284.8-127.2-447.2-292.1-659.2-275.3-336.5 55.2-648.1 639.6-1074.3 729.8-113.9 17.4-168.3 22.2-756.9-250.7-524-245.3-712-371.9-1147.5-297.4-221.7 39.5-307 63.9-537.2 64.7"/>
				<path id="&lt;Path&gt;" class="s0" d="m4646.9 827c-156.3 10.8-199.3 27.9-415 30-204.5 0.4-310.1-11.9-463.9 8.1-219.2 34.1-435.7 131.1-805.7-15-380.2-158.7-533.1-353.6-830.1-174.8-285.6 186-541.7 541.1-879 631.2-148.3 31.9-202.8 9.5-561.6-132.5-596-239.5-827.7-482.4-1318.4-415.7-228.1 33.9-320.5 68.1-586 68.7"/>
				<path id="&lt;Path&gt;" class="s0" d="m4646.9 827c-155.5 10.8-202.3 27.8-415 29.4-214.5-0.1-325.7-14.9-488.3 8.2-256.6 42.5-443.3 108.6-805.7-31.2-374.7-150.7-524.3-309.3-830.2-114.9-292.2 197.7-561.6 537.5-903.3 594.4-110.3 12.6-160.5 4.3-512.8-123.6-570.8-212.1-807.1-479.5-1294-428.6-234.4 27.9-326.7 66.1-610.4 66.3"/>
				<path id="&lt;Path&gt;" class="s0" d="m4646.9 827c-292.1 20.4-121 34.1-683.6 22.9-315.2-3.9-335.1 57-610.4 57.7-481.3-9.1-731.2-303.5-1049.8-248.7-328.5 78.3-643.3 553.2-1074.3 647.1-139.9 24.2-210.1 1.3-488.3-85.6-573.7-184-820.3-482.4-1294.1-457.9-236.3 16.6-346.3 64.7-659.2 64.5"/>
				<path id="&lt;Path&gt;" class="s0" d="m4646.9 827c-289.8 20.4-151.6 35.7-683.6 21.1-388.2-8.2-517.1 123.5-976.6-12.3-281.6-86.9-443.9-186.4-659.2-155.2-219.4 44.6-390.4 226.8-683.7 428.5-421.1 282.3-575.6 210.4-854.5 138.2-417.7-111.3-587.9-264-903.4-396.3-431.6-172.9-589.8-22.9-1098.7-24"/>
				<path id="&lt;Path&gt;" class="s0" d="m4646.9 827c-277.6 19.6-178.4 37.1-683.6 19.3-389.3-11.4-498.7 110.4-976.6-18.5-283.6-79.4-443.2-160.8-659.2-121.4-219 51.4-392.2 224.1-683.7 410.9-420.7 262.8-580.7 201.7-854.5 141.8-394.9-90.1-573.1-244.1-879-383.9-443.4-194.8-607-46.3-1123.1-48.2"/>
				<path id="&lt;Path&gt;" class="s0" d="m4646.9 827c-269.1 19-201.4 37.9-683.6 17.2-392.4-14.8-473 98.1-976.6-24.9-280.7-70.6-441.1-135.4-659.2-87.5-226 60.1-409.5 234.2-708.1 406.7-398.8 223.9-560.5 178.9-830.1 131.2-391.6-73.6-563.8-230.1-879-380.4-435.7-199.8-611-59.7-1123.1-62.3"/>
				<path id="&lt;Path&gt;" class="s0" d="m4646.9 827c-253.6 17.6-219.8 38.4-683.6 14.6-416.6-19.5-425.2 90.8-1001-37.7-265.5-60.4-450.1-111.1-683.7-32.5-358.1 135-780.9 573.7-1294 527.7-276.7-28.1-405.1-43.2-659.2-169.6-264.9-135.7-432.9-266.3-683.6-320.9-284.2-53.6-458.4 20.9-854.6 18.4"/>
				<path id="&lt;Path&gt;" class="s0" d="m4646.9 827c-149.4 10.2-218 26.2-415 24.7-199.4-3.4-308-21.8-463.9-16.4-135.9 7.5-212.8 28.5-415.1 17.1-564.1-39.6-746.6-251.3-1294 51.5-507.2 285.4-756 460.9-1367.3 368.7-523.4-90-716.4-466.2-1269.6-476.5-232.7-0.3-319.4 33.2-634.8 30.9"/>
				<path id="&lt;Path&gt;" class="s0" d="m4646.9 827c-242.2 16.1-254.9 38.6-683.6 9.4-330.6-21.4-311 24.7-610.4 4.1-185.7-15.1-307-43.8-488.3-70.2-739.3-101.7-889.3 365.1-1684.7 509.7-131 21.3-443.2 31.3-659.2-31.9-416.7-133.4-597.4-417.6-1074.3-444.3-229.1-8.6-338.4 25.9-659.2 23.2"/>
				<path id="&lt;Path&gt;" class="s0" d="m4646.9 827c-260.9 17-262.6 38.7-708 5-308-21.3-297.2 23.3-610.4-5.6-450.7-46.1-659.7-151.5-1098.7 42.7-276.9 126.8-602.9 331.9-1098.7 411-1004.9 140.6-973.5-453.4-1757.9-472-210.9-1.9-288.1 21.4-586 18.9"/>
				<path id="&lt;Path&gt;" class="s0" d="m4646.9 827c-155.1 9.8-237.2 25.9-439.4 20.4-200.4-7.3-305-28.3-463.9-26.7-127.6 3.4-201 15.5-415.1-6.7-188.9-21.1-315.1-48.1-488.3-57-593.7-21.3-707.5 325.2-1684.7 510.1-124.5 22.2-361 45-488.3 37.8-488.1-41.8-673.8-445.2-1245.2-488.6-217.8-12.8-319.2 13.7-634.8 10.7"/>
				<path id="&lt;Path&gt;" class="s0" d="m4646.9 827c-290.5 17.3-289.5 36.7-708-1.6-322.2-28.6-280 13.9-610.4-24.2-194.1-23.7-316.5-48.7-488.3-50.9-561.2 2.9-667.8 352.8-1806.7 525.5-292.3 41.6-428.8 71.4-683.7-41.5-407.9-192.1-507.9-413.3-1074.3-417.5-185 0.6-230.3 12.7-488.3 10.2"/>
				<path id="&lt;Path&gt;" class="s0" d="m4646.9 827c-202.3 11.4-304.7 34.1-634.7 2.2-435.3-43.5-333.4 3.6-683.7-40.8-182.7-24.1-301.3-46.4-463.9-45.5-463.6 11.8-578.1 255.2-1269.6 411.1-0.5 0.1-561.1 112.6-561.5 112.6-289.9 52.9-423.2 96.3-683.7-16-395.5-182.4-496.9-408.7-1049.8-429.4-181.8-4.5-238.7 8.6-512.8 5.8"/>
				<path id="&lt;Path&gt;" class="s0" d="m4646.9 827c-200 10.5-312.5 32.7-634.7-0.8-444.3-48.2-325-1-683.7-50.7-194.4-27.9-321.7-49.4-488.3-38.8-443.4 39-519.3 284.6-1245.2 414.3-333.2 57.8-206.4 24.9-634.8 123.1-253.9 59.4-385 94.5-634.8-18.2-381.1-183.7-489.7-407.9-1049.9-431.5-172.5-5.1-218.8 5.4-488.3 2.6"/>
				<path id="&lt;Path&gt;" class="s0" d="m4646.9 827c-243.7 11.9-329.5 30.1-634.7-3.8-474.3-54.5-312.1-6-659.3-56.8-184-28-305.3-49.1-463.8-40.8-465.2 35.8-518 307.1-1220.8 412.4-200.6 28.7-311.3 33.8-488.4 73.1-351.4 82.6-446.8 149.5-659.2 122-394.4-67.5-537.3-387.1-1049.8-482.8-229.8-39.1-358.6-19.8-683.7-23.3"/>
				<path id="&lt;Path&gt;" class="s0" d="m4646.9 827c-206.9 9.2-325.6 29.4-634.7-7-545.7-66.7-226.5 2.3-756.9-81.8-840.2-129.4-691.6 312.4-1611.5 401-188.9 17.3-301.8 21.1-463.9 58-311.2 76.3-418.7 161.8-634.8 149.8-385.4-38.6-551.5-374.4-1049.8-484.7-239-48.9-369.4-32-708.1-35.3"/>
				<path id="&lt;Path&gt;" class="s0" d="m4646.9 827c-206.8 8-331 27.1-634.7-10.7-531.9-68.5-263.3-6.4-732.5-87-547.3-90.7-636.4 54.9-1001.1 252.5-396.3 205.1-689.4 120.4-1049.8 188.4-288.6 60.7-416.3 169.4-634.8 184.1-249.2 5.6-420.9-136.4-659.2-293.5-391.4-253.2-640.8-229.2-1147.6-233.8"/>
				<path id="&lt;Path&gt;" class="s0" d="m4646.9 827c-205.7 6.7-335.8 24.7-634.7-14.3-554.5-75.3-240.5-8.2-732.5-96.3-579.7-100.1-685.4 111-1025.5 290.4-391.8 193.9-681.1 74.6-1049.8 152.2-269.3 63.6-393.5 178.5-610.4 200.9-239.1 13.6-403.6-114.3-634.8-270.8-423.1-282.7-692.8-258.1-1172-262.1"/>
				<path id="&lt;Path&gt;" class="s0" d="m4646.9 827c-240.7 6.4-349.4 21.1-634.7-18-616.6-87.9-217.1-8.8-732.5-105.4-558.5-100.6-674.8 115.9-1001.1 302.5-385.8 207.2-679.3 64.2-1049.8 131.5-262.7 55.3-393 184-610.4 224.6-250.4 34.9-430.2-103.4-659.2-260.9-419.3-284.1-697.6-271-1172-274.3"/>
				<path id="&lt;Path&gt;" class="s0" d="m4646.9 827c-223.3 4.6-347 19.6-634.7-21.7-130.7-19.5-166.6-27.8-268.6-39.4-449.5-46.8-598.8-143.9-879-83.6-272.2 68.6-395.8 231.9-610.4 349.3-381.7 192.4-678.9 16.6-1049.8 94.8-257.4 63-384.7 205.1-610.4 244.8-387.3 48.6-574.4-319.7-1049.9-468-279-83.4-434.8-74.3-756.9-76.2"/>
				<path id="&lt;Path&gt;" class="s0" d="m4646.9 827c-244.8 3.3-359.3 15.6-634.7-25.5-741.2-115.3-193.6-12.6-732.5-123-576.3-111.9-702.8 183.2-1025.5 362.4-368.8 187.3-661.4-0.3-1025.4 63.3-258.3 54.4-384.1 206.3-610.4 265.6-231.2 48.9-401.5-65.5-586-194-447.7-314.3-637.8-345.5-1245.2-348.8"/>
				<path id="&lt;Path&gt;" class="s0" d="m4646.9 827c-221.7 1.1-355.3 13.4-634.7-29.7-788.2-126.6-250.2-27.4-732.5-129.9-573.1-115.4-713.2 201.8-1025.5 377-375.8 191.5-677.2-32.1-1049.8 46.4-253.2 63.6-378.5 227.4-610.4 284.4-378.3 72.7-579.2-296.3-1025.5-451.7-297.1-100-434.8-95.1-781.3-96.5"/>
				<path id="&lt;Path&gt;" class="s0" d="m4646.9 827c-300.7-1-472.1 26.5-1367.2-170.7-574.9-119.7-708.5 211.9-1025.5 391.6-364.5 186.6-659.2-42.6-1025.4 19.2-257.7 54.3-378 224.1-610.4 301.5-232 64.9-402.4-46.9-586-175.1-429-303.3-628.9-365.2-1245.2-366.5"/>
				<path id="&lt;Path&gt;" class="s0" d="m4646.9 827c-411.4-5-425.7 20.8-1391.6-187-569.5-114.1-702.2 257.9-1025.5 424-363.3 166.1-659.7-87.1-1025.4-10.2-250.6 64.3-373.4 247.4-610.4 321.8-380 98.1-563.9-275.2-1049.9-449.6-290.2-101.2-426.7-99.1-756.9-99"/>
				<path id="&lt;Path&gt;" class="s0" d="m4646.9 827c-650.6-13.3-494.4-28-927.7-95.2-397.7-60.2-565.5-183.8-854.6-98.2-360.5 123-461.6 435.5-805.7 483.7-300.9 29.2-532.3-135.7-830.1-87.2-337 70.9-482.5 406.3-830.1 361.6-291.3-54.2-449.9-306.9-830.2-451.3-306-113.3-441.5-114.3-781.3-113.4"/>
				<path id="&lt;Path&gt;" class="s0" d="m4646.9 827c-647.7-19.3-486.8-29.3-927.7-101.2-394.8-63.1-565.8-190.1-854.6-101.6-365.7 128.8-460.3 449.4-805.7 492-308.5 24-549.2-164.1-854.5-100.1-326 85.4-476.8 433.6-830.2 375.2-290.8-64.8-421.1-300-830.1-455.5-292.6-108.6-428.9-110.5-756.9-108.8"/>
				<path id="&lt;Path&gt;" class="s0" d="m4646.9 827c-660-26.7-471.6-30.8-976.6-114.7-338.9-59-534.7-193.5-830.1-88.4-362.9 146.2-450.6 465.6-805.7 487.8-300.6 5.6-533.7-177.8-830.1-115.7-326.5 86-475.5 447.2-830.2 396.1-286.1-58.1-422.9-295.2-830.1-453.2-292.9-111.1-427.2-114.5-756.9-111.9"/>
				<path id="&lt;Path&gt;" class="s0" d="m4646.9 827c-665.7-34-464.1-32.7-976.6-120.5-338.6-60.9-534.5-197.6-830.1-91.5-365 148.5-451.5 473.7-805.7 490.3-299.9 0.5-533.6-191.4-830.1-129.3-326.7 86.5-474.2 460.6-830.2 416.9-292.9-53.6-406.5-286.6-854.5-460.3-279.1-105.7-417.9-109.3-732.5-105.6"/>
				<path id="&lt;Path&gt;" class="s0" d="m4646.9 827c-655.2-40.4-469.1-36-976.6-126.3-338.2-62.9-534.5-201.7-830.1-94.7-366.8 150.7-452.3 481.9-805.7 492.9-299.9-4.6-533.2-205.1-830.1-143.1-318.5 85-462.7 453.6-805.7 440.4-291.2-29.6-434.2-281.4-854.6-451.1-294-116.4-427-123-756.9-118.1"/>
				<path id="&lt;Path&gt;" class="s0" d="m4646.9 827c-573.7-41.5-407-22.8-1001-136.7-325-66.8-530.9-207.1-830.1-83-362.3 167.5-442.9 496-805.7 484.4-300.6-22.9-534.5-228.7-830.2-149.4-309.9 102.3-457.6 480.1-805.7 452.2-282.4-40.4-414.8-275.5-830.1-446.3-294.2-118.9-425.3-127.1-756.9-121.2"/>
				<path id="&lt;Path&gt;" class="s0" d="m4646.9 827c-368.8-30.8-386.7-13.4-1025.4-147.1-176-39.6-278.1-86.8-439.5-117.6-543.9-89.7-689.2 408.5-1025.4 507.8-361.8 82.9-658.1-277.1-1025.5-130.5-233 108.7-359.4 351.6-610.4 438-232.4 64.4-395.9-72-634.8-240.7-138.8-96.5-196.9-128.2-390.6-206.3-267.3-104.9-404-110-708.1-103.6"/>
				<path id="&lt;Path&gt;" class="s0" d="m4646.9 827c-344.6-33-387.8-18-1025.4-151.5-176.8-39.8-277.5-86.7-439.5-118.2-546.6-92.2-692.1 406.1-1025.4 502-361.1 79.6-658-288.8-1025.5-141.1-233.8 110-358.7 358.4-610.4 452.1-238.6 72.6-412.2-74.9-634.8-231.6-139.7-97-197.2-128.3-390.6-207.3-266.2-105.8-401.8-111.8-708.1-104.4"/>
				<path id="&lt;Path&gt;" class="s0" d="m4646.9 827c-398.8-43.1-365-24-830.1-118.6-119.8-23.6-133.2-23.4-219.7-42.9-171.9-41.5-280.2-89.9-439.5-117.4-540.6-77.8-679.5 432.4-1025.4 505.6-360.7 53.2-658.2-319.6-1025.5-145.3-234.9 128.3-369.5 399.7-634.8 469.1-239.6 45.9-403.1-117-659.2-286.7-66.5-42.6-156.8-99.4-390.7-187.1-232.4-83.1-373.1-83.9-634.8-76.7"/>
				<path id="&lt;Path&gt;" class="s0" d="m4646.9 827c-538.1-64.7-321.3-23.7-854.5-127.9-537.7-102.3-711.6-266.3-1049.9-86.2-285.9 166-367.4 380.5-610.3 429.8-230 31.6-405.3-102.6-659.3-177.6-539.6-143.4-608.9 421.2-1025.4 511.7-334.4 49.1-440.2-260.4-1049.9-481.5-222.9-76.6-365.5-75.8-610.4-68.3"/>
				<path id="&lt;Path&gt;" class="s0" d="m4646.9 827c-1311.1-173.8-1211.2-246.7-1513.7-292.8-524.2-64.1-666.5 432.5-1001 497.5-368.6 47.1-672.8-362.2-1049.9-152.2-230.5 145.6-366.9 426.9-634.8 491.9-228.5 39.1-385-111.3-634.8-276.9-60.7-39-153.7-98.7-390.7-189.9-233.1-85.7-375.1-86.4-634.8-77.6"/>
				<path id="&lt;Path&gt;" class="s0" d="m4646.9 827c-399.4-57.5-215.5-15.2-854.5-136.6-438.1-81.1-459.1-134.3-683.6-162.7-520.9-49.4-652.7 453.2-1001.1 494.4-360.7 19.8-657.9-370.4-1025.4-164.2-231.1 147.2-366.3 434.7-634.8 506.7-227.9 44.6-385.2-103.9-634.8-269.2-60.9-39.1-155.3-99.5-390.7-190.9-233.7-86.7-374.1-87.1-634.8-77.5"/>
				<path id="&lt;Path&gt;" class="s0" d="m4646.9 826.9c-9.6-1.5-842.5-114.2-1171.9-208.2-376.9-110.7-552.2-164.6-854.5 49.6-307.8 230.3-370.3 450.8-805.7 276.8-353.4-147.5-545.6-280.8-830.2-36.3-279.8 258.2-442.6 583.4-830.1 405.2-249.1-125.3-375.9-303-830.1-443.7-194.3-55.7-328.3-51.6-537.2-43.3"/>
				<path id="&lt;Path&gt;" class="s0" d="m4646.9 826.8c-172.4-28.4-284-41.9-488.3-76.7-218.2-37.9-234-45.4-463.9-83.5-420.5-71.9-646.9-268.3-1025.4-39.4-282.1 182.7-347.5 372.6-610.4 365.8-360.3-29.7-656.5-412.4-1025.4-146.7-211.2 168-350.9 443.1-610.4 506.9-316.5 54.6-456.9-246.8-1025.5-459.5-222.9-78.9-362.5-77.2-610.4-66.7"/>
				<path id="&lt;Path&gt;" class="s0" d="m4646.9 826.8c-1029-180.5-983-158.3-1196.3-218.5-240-69.1-409-129.6-634.8-58-473.7 171.3-455 599.4-1025.5 348-239.5-108.9-415.2-217.8-634.8-143.6-357.3 147.3-512.4 764.1-1001 553.6-242.5-115.3-246.5-197.3-659.2-376.3-267.8-113.3-401.9-118.7-708.1-105.1"/>
				<path id="&lt;Path&gt;" class="s0" d="m4646.9 826.7c-1178.9-219.1-924-141.7-1294-248-219.8-62.6-378.1-95.9-585.9-15.1-181.6 78.4-284.9 189.2-415.1 296-439.7 340.2-773.1-301.9-1220.8-117.3-353.1 172.7-502.6 782.2-1001 551.9-187.8-94.6-569.4-424.3-1025.5-468.6-114.2-8.8-199.8-4.2-317.4 1.3"/>
				<path id="&lt;Path&gt;" class="s0" d="m4646.9 826.6c-1229.3-239-814.8-116.8-1342.8-261.3-225.4-60.1-380.8-78-586 15-194 96.1-278.2 206-415 302-422.9 264.7-775.1-390.1-1220.8-136.8-168.7 109.7-251.5 270-439.5 448-526 467.1-753.8-341.6-1611.4-372.9-89.7-1.8-146.7 1.4-244.2 6.3"/>
				<path id="&lt;Path&gt;" class="s0" d="m4646.9 826.5c-320-65.1-669.3-132.5-952.2-170.6-509.8-71.3-734.6-322-1245.2 96.7-135.9 113.7-223.2 199.3-415 175-151.8-27.2-254-94.1-439.5-181.8-438.4-200.1-564.9-9.6-830.1 301.8-270.9 311-436.9 373.7-781.3 156.6-603-390.2-784.1-398.8-1196.4-377.3"/>
				<path id="&lt;Path&gt;" class="s0" d="m4646.9 826.5c-834.8-176.8-843.7-152.3-1049.8-186.8-387.7-71.2-631.5-238.5-1025.5 11.1-246.6 165.4-315.8 326.4-610.4 242.8-232-75.3-402-227.2-634.8-252.1-467.3-24.7-575.5 685.1-1025.4 684-302.4-21.6-493.7-338.5-1025.5-475.7-176.2-41-300.5-33-488.3-22.9"/>
				<path id="&lt;Path&gt;" class="s0" d="m4646.9 826.4c-954.8-212-851.6-142.9-1147.5-206.5-340.9-76.9-545.3-170.6-854.5-19.1-331.8 175-371.5 415-781.3 237.6-307.6-140.5-540.5-340-830.1-127.3-267.4 219.5-441.9 687.3-830.2 592.6-253.4-76.4-367.2-263.7-830.1-426.9-216.7-71.4-357.1-62.8-586-50"/>
				<path id="&lt;Path&gt;" class="s0" d="m4646.9 826.3c-891-206.5-817-146.8-1098.6-196.5-322.1-61.2-545.3-174.6-854.6-56.8-371.4 156-394.4 428.4-805.7 257.8-306.2-135.8-539.2-349.4-830.1-160.4-278 204.5-444.7 696.9-830.2 633.3-259.4-58.8-382.3-262.9-854.5-428.6-216.7-71.1-357.4-61.7-586-48.3"/>
				<path id="&lt;Path&gt;" class="s0" d="m4646.9 826.2c-821.6-195.3-765.3-150.7-1049.8-188.4-332.7-49.1-550.1-168.4-854.6-84.8-324.8 101.5-377.5 296.5-610.3 316.3-229.5 3.3-406.1-164.2-659.3-259.7-545-186.4-615.1 445-1025.4 657.5-323.6 142.2-474.2-161.2-1025.5-376.5-235.7-87.3-375.2-79.6-634.8-63.8"/>
				<path id="&lt;Path&gt;" class="s0" d="m4646.9 826.1c-508.8-124.3-519.2-138.6-1001-182.4-180.4-18.7-284.1-51.9-463.9-88.4-628.4-121-736.4 232.9-1001 293.4-359.5 53.7-666.3-418.3-1049.9-263.2-251.5 121.3-365.4 455.1-634.8 642.2-211.2 130.5-364.7 56-586-84.8-561.4-361.1-782.3-337.8-1123.1-316.1"/>
				<path id="&lt;Path&gt;" class="s0" d="m4646.9 826.1c-438.6-110.3-533.2-150.4-976.6-180.8-352.1-27.1-559.1-141.4-854.5-107.9-431.4 63.1-454.3 354.7-781.3 291.6-295.1-72.4-527.9-344.7-830.1-288.9-342.4 87-455.7 585.1-805.7 726.4-278.3 90.3-442.5-141.7-830.2-319.3-309.2-139.6-427.1-143.8-781.3-120.4"/>
				<path id="&lt;Path&gt;" class="s0" d="m4646.9 826c-253.9-65.5-466.2-135.7-756.8-166.7-311-29.9-185.1 11.9-683.7-88.7-137.5-27-249.3-44.7-390.6-32.2-319.2 38-416.3 204.8-586 269-351.4 102.4-644.8-358.2-1025.4-288.6-291.2 73.6-378.1 396.5-659.3 646.5-349.8 285.5-534.2-25.9-1025.4-242.8-284.5-122.5-414.3-117.4-732.5-95.7"/>
				<path id="&lt;Path&gt;" class="s0" d="m4646.9 826c-251.3-66.7-453.3-137.2-732.4-167.5-281.1-27.5-232.1 11.6-708.1-82.7-137.1-26.5-249.6-45.4-390.6-36.5-325.8 30-414.7 191-586 254-351 98.6-644.3-364.9-1025.4-295.8-283 71.1-362.9 365.1-634.8 632.3-361.4 329.7-553.4 12.6-1025.5-199.4-297.1-130.8-420.5-127.4-756.9-103.6"/>
				<path id="&lt;Path&gt;" class="s0" d="m4646.9 826c-256-69.4-453.6-142.5-732.4-170.8-250.5-22.2-270.9 7.9-610.4-55-203.6-38.8-326.3-65.2-488.3-59.2-351.2 22.9-420.7 194.1-610.4 245.4-350.3 65.1-646.4-397.4-1025.5-302.5-276.3 89.2-360.5 399.5-634.8 655.3-351.3 302-536.5-8.8-1025.4-222.9-282.6-120.5-411.9-113.1-732.5-89.5"/>
				<path id="&lt;Path&gt;" class="s0" d="m4646.9 826c-352.7-97.3-525.5-175.7-903.3-181.4-451.8-4.3-605.4-97.8-903.4-101.4-480.3 5.8-473.5 301-805.7 223.1-293.4-84-527-361.3-830.1-306.8-355.6 88.6-467.2 631.9-830.2 776.9-269.4 86.1-431.8-132.9-805.7-302.4-307.7-136.9-425.5-134.6-781.3-107.2"/>
				<path id="&lt;Path&gt;" class="s0" d="m4646.9 826c-253-71-429.6-142.2-683.6-172-249.5-25.4-306.3 9.7-610.4-34.8-200.8-31.1-319.1-62.5-488.3-72-362.8-12.8-447.2 129.5-610.4 198.6-349.8 117.5-641-351.9-1025.4-309-290.1 51.9-363.6 328.9-634.8 628.8-377.1 391.9-576.9 62.9-1049.9-146.4-297.4-128.5-423.7-119.1-756.9-92.4"/>
				<path id="&lt;Path&gt;" class="s0" d="m4646.9 826c-269.7-76.9-443.3-152.2-708-177.6-249.2-19.8-302.6 18.6-634.8-31.3-194.6-30.6-304.5-58.2-463.9-67.6-349.1-13.5-427.3 118.2-586 183.7-349.6 113.8-640.4-357.5-1025.4-314.7-291.1 51.8-363.7 329.3-634.8 634-375 396.4-579.7 73.9-1025.5-126.4-312.8-137.6-432.1-128.2-781.3-99.3"/>
				<path id="&lt;Path&gt;" class="s0" d="m4646.9 826c-274.5-79.7-443.8-156.9-708-180.6-242-17.6-310.2 22.2-634.8-22.7-198.8-29.2-320.5-60.9-488.3-71.6-358.1-15.6-411.3 122.1-586 177.1-348.7 79.7-641.9-391.7-1025.4-323.6-287.5 71-358.8 364.2-634.8 661-365.2 366.7-559.9 49.6-1025.5-154.1-296.4-126.3-423-113.5-756.9-84.7"/>
				<path id="&lt;Path&gt;" class="s0" d="m4646.9 826.1c-272.7-80.1-431.7-155.3-683.6-181.4-247.1-21-321.1 23.3-634.8-13.3-195.7-24.7-317.3-57.6-488.3-75.4-363.1-31.9-423.5 89.1-586 152.7-357.3 108.9-655.1-390.3-1049.8-320.2-288.8 71.3-357 362.7-634.8 665.4-365.9 372.7-561.2 54.8-1025.5-146.7-296-125.1-423.8-110.4-756.9-80.4"/>
				<path id="&lt;Path&gt;" class="s0" d="m4646.9 826.2c-344.4-102.2-518.8-201.4-878.9-187.4-481.6 23.7-498.1-15.7-878.9-72.8-545.7-75.7-490.3 173.5-781.4 145-297.7-48.5-536.5-358.8-854.5-343.7-386.3 43.1-471.3 570.6-830.1 798.2-288.8 159.3-470.9-79.4-830.2-241.8-325.9-143.7-442-130.5-805.7-96.9"/>
				<path id="&lt;Path&gt;" class="s0" d="m4646.9 826.3c-351.4-105.1-520.4-206.4-878.9-188.6-496.7 30.3-501.7-7.6-903.4-71-542.1-79.6-474 180.2-781.3 127.7-298.8-68.7-537.7-374.2-854.5-338.5-376.8 67.5-466 609.6-830.1 814-281.7 134.8-452.3-96.6-830.2-261.9-310.5-132.3-431.4-114.9-781.3-81.1"/>
				<path id="&lt;Path&gt;" class="s0" d="m4646.9 826.4c-278.3-84-422.8-159.5-659.2-187.1-238.9-22.6-324.6 26.2-610.3 11.5-176.8-11.6-292.1-38.6-464-71.2-349.1-64.5-424.3-22.9-585.9 64-368 183.9-630.9-277.9-1025.5-305.6-306.7-3.5-409 259-634.8 564.8-567.5 740.7-767.5-135-1611.4-100.7-88.2 5-109.2 8.8-268.6 24.8"/>
				<path id="&lt;Path&gt;" class="s0" d="m4646.9 826.4c-364.3-110.7-522.7-216.3-878.9-190.8-364.7 30.9-398.5 41.2-878.9-56-133.4-26.2-258-47.7-390.7-20.5-170.7 45.9-203.5 137.5-390.7 114.7-289.2-53.9-519.4-347.1-830.1-350.2-398.7 20.3-475.5 532.8-830.1 797.9-295.7 196.4-486.1-44.5-830.1-201.9-336.5-148.9-446.4-132.6-830.2-92.7"/>
				<path id="&lt;Path&gt;" class="s0" d="m4646.9 826.5c-367.1-112-524-220.5-878.9-191.8-365.4 34.5-428 47.5-878.9-50.8-132-28.2-258.3-53.9-390.7-30.6-170.6 41.2-202.2 133.7-390.7 109.4-288.6-55.8-519.3-348.3-830.1-350.8-399.5 21-475.6 533.5-830.1 800.7-295.9 198.4-486.5-42.6-830.1-198.6-337.5-148-448.3-128.5-830.2-87.1"/>
				<path id="&lt;Path&gt;" class="s0" d="m4646.9 826.7c-358.5-109.2-518.9-219.1-854.5-195.1-260.6 23.2-396.8 70.7-830.1-26.8-165.6-38.1-314.5-78.9-463.9-56.6-175 37.8-210.7 140.1-415.1 99.6-289.1-74.1-520.4-361.4-830.1-344.3-391.2 46.2-470.1 574.7-830.1 817.1-290.3 171.1-474.5-68.8-830.2-223.1-325.5-136.9-441-111.9-805.7-70.6"/>
				<path id="&lt;Path&gt;" class="s0" d="m4646.9 826.8c-376.8-115-528.3-227.6-878.9-193.9-315.3 35.1-435.4 65.4-830.1-29.1-163.5-39.6-316.4-84.1-463.9-56-159.7 42-206.3 137.9-415.1 83.4-289.9-91.2-521.9-371.4-830.1-334.4-381 70.6-465 613.5-830.1 829.8-284.1 144.6-458.9-91.1-830.2-245.1-312.1-125.4-434.3-95.5-781.3-54.5"/>
				<path id="&lt;Path&gt;" class="s0" d="m4646.9 826.9c-379.4-115.4-529-231.2-878.9-194.9-283.9 34-427.9 74.1-805.7-17.4-189.3-47.2-302.1-84.1-439.5-78.9-189.5 18.4-212.3 126.6-415.1 96.8-288.5-60.4-518.1-349.6-830.1-349.7-411.5 24.6-488 572.1-854.5 821-290.9 173.1-475.6-67.7-830.2-218-325.7-133.5-440.5-103.7-805.7-58.8"/>
				<path id="&lt;Path&gt;" class="s0" d="m4646.9 827c-373.1-113.1-522.1-229.2-854.5-198.6-234.7 26.2-418.9 90.4-805.7-2.8-202.3-50.7-317.9-95.9-463.9-94.3-185.1 13-200.2 111.3-390.6 94.9-289-44.2-514.5-335.7-830.2-353.2-421.4 1-491.7 528.2-854.5 805.7-296.8 202.4-488.8-39.8-830.1-188.5-345.2-144.6-463.7-110.1-830.2-63.2"/>
				<path id="&lt;Path&gt;" class="s0" d="m4646.9 827c-309.7-92.6-440.6-181.3-683.6-203-325.1-19.8-491.3 130.5-1001-0.1-357.6-95.4-415-139-634.8-39.6-378.7 161-642.9-320.4-1049.9-318.6-316.5 20.2-393.1 294.9-659.2 634.3-542.7 659.2-727.4-212.4-1611.4-103.9-101.8 13.5-95.1 14.5-219.8 30.9"/>
				<path id="&lt;Path&gt;" class="s0" d="m4646.9 827c-378.5-110.8-528.8-239.3-878.9-197.4-277.6 38.2-440.9 93-805.7-1.7-202.8-55-320.9-104.9-463.9-100.7-169.3 16.7-196.6 112.3-390.7 80.7-295.7-66.3-533.4-367.3-854.5-346.2-400.9 50.9-484.9 611.8-854.5 831.6-285.6 146-460.9-91.4-830.2-235.8-320-120.3-447.7-76-781.3-30.5"/>
				<path id="&lt;Path&gt;" class="s0" d="m4646.9 827c-295.9-84.3-423.1-173.4-659.2-202.4-340-32-519 140.6-1025.4 7.3-353-97.4-411.5-153.6-634.8-57.6-379.1 153.7-641.9-323.3-1049.9-319.9-316.8 21.3-392.5 293.2-659.2 630.7-545.8 657.8-717.4-217.1-1611.4-92.1-102.3 15.2-100.4 17.1-219.8 34"/>
				<path id="&lt;Path&gt;" class="s0" d="m4646.9 827c-288.7-80.3-404.6-164.4-634.7-200.1-351.3-44.2-534.9 139.2-1025.5 15.5-200.3-53.5-314.8-109.4-463.9-119.7-84.3-0.8-117.7 14.1-195.3 46.6-379.2 150.1-641.6-324.8-1049.9-320.5-316.9 21.8-391.9 291.7-659.2 628.8-545.9 655.3-717.3-218.6-1611.4-86.2-106.3 16.8-102.9 18.5-219.8 35.6"/>
				<path id="&lt;Path&gt;" class="s0" d="m4646.9 827c-285.6-77.5-403.6-164.3-634.7-200.8-352.7-45.4-540.9 143.6-1025.5 20.3-316.6-85.6-425.1-175.1-634.8-92.1-74.2 30.3-111.8 44.7-195.3 40.9-293.4-33.3-528.5-338.3-854.6-352.5-321.8 4-413.1 274.2-659.2 596.7-555.5 697.5-738-168-1587-57-107.1 15.5-142.1 25.4-268.6 44.5"/>
				<path id="&lt;Path&gt;" class="s0" d="m4646.9 827c-291-76.7-419.8-172.3-659.2-204-233-23.9-337.2 43.3-610.3 65.1-514.9 31.7-717.5-253.5-1025.5-135.2-222.7 88.5-320.8 26.7-634.8-159.9-120.2-70.5-240.7-138.5-390.7-153-329.1-14.3-436.4 259.9-659.2 560.4-570 741.9-753.7-126.3-1587-23.4-117.5 16.4-156.3 28.6-293 50"/>
				<path id="&lt;Path&gt;" class="s0" d="m4646.9 827c-291.5-74.2-417.8-170.3-659.2-203.5-233.2-25.1-336.9 41.9-610.3 65.7-517.7 35.9-717.8-250.4-1025.5-135.6-223.3 86.3-320.9 23.6-634.8-163.1-119.9-70.4-240.5-138.4-390.7-153.1-316.5-14.2-426.8 236.9-634.8 523.4-586.3 784.2-767.3-83.2-1587 10.7-126.1 16.7-174.1 32.4-317.4 55.5"/>
				<path id="&lt;Path&gt;" class="s0" d="m4646.9 827c-275-67.6-404-159.8-634.7-199.6-246.8-35.2-352.1 36.2-634.8 63-523.6 40.1-716.6-247.8-1025.5-136.2-223.5 84-320.3 21-634.8-166.3-120.2-70.5-240.7-138.3-390.7-153.1-318-14.7-430 239.6-634.8 519.4-587.2 778.5-765.8-86.9-1587 14.7-128.1 18.2-175 34.4-317.4 58.1"/>
				<path id="&lt;Path&gt;" class="s0" d="m4646.9 827c-280.5-66.4-400.7-157.5-634.7-199-246.4-36.3-351.6 34.6-634.8 63.5-525.6 44.3-718.1-244.3-1025.5-136.6-224.8 82.1-321.6 17.3-634.8-169.5-120-70.5-240.4-138.2-390.7-153.2-317.2-15-428.3 235.7-634.8 515.3-594.2 781-760.5-105.7-1611.4 22.5-120.7 20.2-163.2 34.7-293 57"/>
				<path id="&lt;Path&gt;" class="s0" d="m4646.9 827c-284-64.7-418.1-165.4-659.2-202.1-242.5-29.7-350.1 43.9-634.8 70-526.9 38.6-683.7-251.9-1025.4-130.7-370 124.1-624.6-316.4-1025.5-335.8-306.5 1.8-399 237.1-634.8 544.2-576.9 724.7-748.4-152.1-1611.4-0.6-124 23.5-142.7 32.7-268.6 55"/>
				<path id="&lt;Path&gt;" class="s0" d="m4646.9 827c-282.6-61.6-418.3-162.6-659.2-200.7-233.2-29.9-335.4 35.3-610.3 67.2-529.2 52.4-719.2-233.2-1025.5-132.7-225.2 77.4-321.2 11.1-634.8-177.5-120.4-71.3-240.4-139.1-390.7-155-314.4-16.9-422.8 223.8-634.8 505.1-594.9 766.4-760.1-111.7-1611.4 32-130.2 24.1-159.3 37.3-293 61.6"/>
				<path id="&lt;Path&gt;" class="s0" d="m4646.9 827c-280.6-58.2-398-148.9-634.7-194.6-364.5-60-562.7 140.7-1025.5 42.8-195.6-45.1-312.7-105.9-463.9-127.2-84.7-7.5-116.9 2.9-195.3 29-368.9 115.3-624.4-326-1025.5-350.7-303.8-2.3-394.3 224.6-634.8 530.3-577 707.5-749.9-155.4-1611.4 11.3-124.2 25.7-149.1 36.9-268.6 59.1"/>
				<path id="&lt;Path&gt;" class="s0" d="m4646.9 827c-274.6-54.1-401.3-145.9-634.7-192.4-247.1-42.2-350 23.4-634.8 60.2-536.7 60.9-718.5-211.9-1025.5-117.8-223.4 71.6-318.7 5-634.8-189.4-598.9-362.8-719.2-66.1-1025.5 330.2-595.8 747.9-760.2-115.9-1611.4 43.1-137.7 27.9-159.3 40.6-293 66.1"/>
				<path id="&lt;Path&gt;" class="s0" d="m4646.9 827c-291.7-54.4-412.6-150.9-659.2-194.6-362.2-53.7-566.9 150-1049.8 42.3-189.8-45.5-297.7-97.8-439.5-110.6-82.2-2.5-101.9 8.5-195.3 35.5-351.8 85-626.6-365.8-1025.5-375.2-298 9.4-375.2 234.9-634.8 544.9-564.2 645.2-729.2-198.2-1611.4 0-118.6 28-138.7 37.1-244.2 57.7"/>
				<path id="&lt;Path&gt;" class="s0" d="m4646.9 827c-282.8-49.8-395.1-137.6-634.7-188-246.1-45.1-347.4 16.2-634.8 57.1-543 69.5-718.8-190.4-1025.5-103-225.3 67.2-322.9-5.2-634.8-201.2-119.2-73.8-239.5-145-390.7-165.6-308.2-26.2-412.6 195.8-634.8 475.8-596.3 729-761.2-119.6-1611.4 54.3-140.3 30.8-163.2 44.7-293 70.6"/>
				<path id="&lt;Path&gt;" class="s0" d="m4646.9 827c-283.8-46.8-394.6-132.8-634.7-184.7-255.5-48.4-357.8 17.1-659.3 58-533.6 65-689.3-182.7-1025.4-86.7-364.5 96.3-626-350.2-1025.5-389.3-298.5-13.3-386.8 199.4-634.8 498-580.2 673.6-747-159.9-1611.4 37.6-128.5 31-155.1 44.1-268.6 67.1"/>
				<path id="&lt;Path&gt;" class="s0" d="m4646.9 827c-296.1-45.5-411.8-137-659.2-185.5-370.3-62.8-570.2 135-1049.8 54.9-190.7-35-296.2-80.7-439.5-92-85.4-2.4-105.8 9-195.3 31.4-349.5 70.1-626.7-388.4-1025.5-412.4-293.5-1.5-374.1 218.7-634.8 516.4-564.6 617.5-734.3-194.6-1611.4 24.4-124 32.4-140.4 41.5-244.2 62.8"/>
				<path id="&lt;Path&gt;" class="s0" d="m4646.9 827c-287.7-41-391.2-121.4-634.7-176.7-254-51.5-353.8 6.2-659.3 52.7-545.1 76.5-684.5-145.9-1025.4-57.2-373.2 88.1-639.1-391-1049.9-422.3-291.7-6.1-374.1 212.7-634.8 505.5-566.3 609.3-732.1-192.9-1611.4 33.7-121.8 32.7-142.9 43.2-244.2 64.3"/>
				<path id="&lt;Path&gt;" class="s0" d="m4646.9 827c-300.3-39.4-409-125.5-659.2-177.8-373.2-68.9-574.1 121.6-1049.8 64.2-186.9-25.6-296.8-66.2-439.5-75.2-86.9-1.5-104.2 9-195.3 29.2-355.7 60.7-642.8-429.7-1049.9-444.6-286.4 5.9-363 233.7-634.8 521.2-548.1 551.8-720.7-213.1-1587 17.1-128.8 35.7-141.7 44.3-244.2 65.9"/>
				<path id="&lt;Path&gt;" class="s0" d="m4646.9 827c-287.3-34.4-392.2-110.9-634.7-168.7-383.5-82.7-602 109.6-1074.3 63.6-188.1-21.3-295.6-58.8-439.5-66.8-88.9-1.1-106.1 9.5-195.3 28.1-355.2 55.3-642.4-439.2-1049.9-460.6-284.6 1.3-362.6 227-634.8 510.2-548.5 542.9-722.5-210-1587 26.8-130.2 37.1-142.3 45.6-244.2 67.4"/>
				<path id="&lt;Path&gt;" class="s0" d="m4646.9 827c-301.9-32.8-410.1-113.8-659.2-169-382.6-76-585.9 113.8-1074.3 72.6-190.3-18.9-299.5-53.4-439.4-54-109.8 4.6-120.6 25.5-219.8 32.3-347.1-3-646.1-503.6-1049.8-485.3-271.5 29.7-354.9 285.7-634.8 542.9-375.4 323.3-575.2 42.3-1001.1-41.2-365.8-65.5-532.5 48.3-781.3 101.7"/>
				<path id="&lt;Path&gt;" class="s0" d="m4646.9 827c-295.8-28.8-382.5-95.5-634.7-157.8-397.1-90.1-598.5 93.3-1074.3 75.3-193.5-10.3-290.3-39.5-439.5-44-110.9 0.6-122.3 17.5-219.8 29.3-345.6 17.3-646-492.4-1049.8-507.3-263.6 6.4-346.4 220.1-610.4 484.8-550.6 525.5-723.3-198.1-1587 50.1-136 40.5-143.3 47.9-244.2 69.6"/>
				<path id="&lt;Path&gt;" class="s0" d="m4646.9 827c-390.5-33.7-548.9-175-854.5-181.5-261.9 2.5-502.3 118.4-879 110.3-203.7-7.2-319.1-37.6-463.9-29.8-149 14.7-199.1 66-390.6-29.9-295.3-161.5-537.2-474.3-854.5-473.5-341 23.2-476 517.8-854.6 645.4-278 76.4-440.3-104.1-805.7-159.7-350.1-47-521.5 68.1-756.9 118.7"/>
				<path id="&lt;Path&gt;" class="s0" d="m4646.9 827c-303-22.7-367.5-78-634.7-146.3-401.7-95.6-607.2 76.1-1074.3 87.4-191.1 2-288.5-19.5-439.5-20-97 2.5-105.5 11.8-195.3 24.7-351.3 30.2-643-491.8-1049.9-548.2-286.7-23-371.3 214.4-659.2 479-386.3 335.8-595.1 76-1001.1 5.7-387.7-60.4-562.8 65.4-805.7 117.7"/>
				<path id="&lt;Path&gt;" class="s0" d="m4646.9 827c-405.3-25.9-555.1-160.7-854.5-174.1-263.5-3.5-512.1 112.8-879 128.1-202.8 5.7-317.4-16.3-463.9-6.6-150.6 15.3-202.6 60-390.6-42.1-301.2-177.5-556.1-518.6-879-510-322.2 31.7-455.7 489.6-830.1 614.2-279.7 76.6-441.5-95.1-805.7-140.7-351.8-37.9-533.8 83.1-756.9 131.2"/>
				<path id="&lt;Path&gt;" class="s0" d="m4646.9 827c-417.8-22.4-555.9-152.5-854.5-169.3-272.5-6.7-527.7 115.6-903.3 139.2-192.8 9.7-298.6-5.7-439.6 4.6-148.9 15.5-204.3 56.8-390.6-48.5-301.8-184.8-557-532.2-879-530.8-320.5 24.7-454.5 473.8-830.1 598.4-278.9 76.6-448-90.4-805.7-130.4-352.8-33.1-535.9 89.6-756.9 136.8"/>
				<path id="&lt;Path&gt;" class="s0" d="m4646.9 827c-329.3-14.6-373.3-61.1-659.2-132.8-398.6-94.2-610.5 65-1074.3 116.3-189.8 18.8-292.7 8.8-439.4 17.4-101.1 8.2-120.8 19.4-195.4 21.7-352.5-16.2-663.8-591.3-1074.2-626.6-256.3-4.7-357.3 232.1-634.8 459.6-380.9 294-583.5 53-1001.1 4.8-372.5-36.6-550.1 90.8-781.3 139.6"/>
				<path id="&lt;Path&gt;" class="s0" d="m4646.9 827c-348-11.8-391.5-61.2-683.6-131.6-396.1-89-627.2 78.9-1098.7 136.6-194.2 21.5-297.2 13.2-439.4 28.9-105.6 13.8-135 24.2-219.8 4.5-350.5-108.2-682.9-683.2-1074.3-639-233.9 46.2-358.2 312.1-634.8 493.8-201.3 121.7-343.9 106.7-586 36.5-621.7-182.9-753.9-6.7-1123.1 70.3"/>
				<path id="&lt;Path&gt;" class="s0" d="m4646.9 827c-474-11.3-604.2-147.4-903.3-155.3-276.5 1.8-533.5 122.5-879 177.2-195.9 28.8-291.3 23.6-439.4 40.4-161.9 20.8-218.1 30.3-390.7-87.6-297.7-215.3-564.8-581.9-879-578.3-298.8 27.5-452.2 451.3-830.1 556.2-278.9 63.2-443.4-87.2-805.7-106.4-338-11.6-522.3 110.5-732.5 153.8"/>
				<path id="&lt;Path&gt;" class="s0" d="m4646.9 827c-482.8-6.1-577.8-128.4-878.9-149.6-278.8-10.5-538.7 113.7-878.9 183.7-188 36.5-290 38.2-439.6 53.8-170.6 19.8-220 37.8-390.6-74.8-301.5-213.1-561.2-589.2-879-616.7-305.9-3.2-453.6 409.5-830.1 533.5-283.8 79.2-451.1-67.2-805.7-87.7-354-14-543.8 114.5-756.9 157.8"/>
				<path id="&lt;Path&gt;" class="s0" d="m4646.9 827c-380.2-1.9-377-35.9-708-116-402.8-91.6-645.2 78.6-1098.7 177.5-162.6 33.7-276.7 42.7-488.3 66.3-78.5 6.3-117.7 0.9-195.3-33.9-346.4-178.3-698.9-770.8-1074.3-686-221.4 69.8-356.4 321.2-634.8 468-227.4 108.6-379.1 58.7-634.8-0.9-521.8-116.9-762.7 72.7-1025.5 125"/>
				<path id="&lt;Path&gt;" class="s0" d="m4646.9 827c-346.6 1-322.8-9.4-683.6-102.2-423.4-104.3-636.7 54.3-1098.7 175.8-182.3 46-274.9 53.6-463.9 76.6-82.4 9.7-119.1 12.9-195.3-11.1-344.5-136-689.5-749.9-1074.3-738.2-228.1 26.5-357.1 265.1-634.8 434.6-373.8 211.3-572.7-12.5-1025.4-1-311.2 14.2-487.2 127.4-683.7 165.5"/>
				<path id="&lt;Path&gt;" class="s0" d="m4646.9 827c-251.1 2.7-270.2 17-634.7-81.5-204.9-54.5-322.5-77.1-586-11.2-312.3 83-623.3 252.6-1098.7 277.2-357.3-2-659.8-618.1-1074.3-764.1-429.3-124.3-557.2 559.6-1196.4 485.3-306.7-42.4-495.4-157-1025.4 20.9-146 49.9-154.1 56.4-244.2 73.4"/>
				<path id="&lt;Path&gt;" class="s0" d="m4646.9 827c-163 3-227 16.2-415-19.3-188.3-38.6-304.6-87.5-463.9-105.2-412.8-32.2-722.6 238.2-1269.6 318.5-190.7 26.4-248.3 33.6-390.7-57.6-295.3-206.1-556.6-618.7-878.9-719.2-321.4-78.4-467.9 303.9-854.6 447.4-297.2 97.1-482.3-35.9-830.1-38.3-349.7 4.1-546.9 135.2-756.9 173.7"/>
				<path id="&lt;Path&gt;" class="s0" d="m4646.9 827c-243.8 6.4-267.8 32.8-659.2-72.1-201.5-53.5-325.6-76.3-585.9-3.9-312.4 92.1-672.9 305.9-1074.3 315.3-354-13.6-661.1-646-1074.3-810-426-142.3-556.3 521.6-1220.8 450.6-317.7-39.7-481.2-131.6-1025.4 56-127.4 44.4-140.1 49.9-219.8 64.1"/>
				<path id="&lt;Path&gt;" class="s0" d="m4646.9 827c-155.6 5-213.7 22.3-390.6-2.7-180.9-29.1-280.6-72.1-439.5-101.5-452.4-72.3-787.6 250.7-1294 346.1-223.5 38.5-279.3 23-390.6-45.6-288.5-195.7-555.5-626.1-879-760.2-316.5-111-460.7 219.3-830.1 383.8-308.1 124.8-500.5 6-830.2-0.7-372-0.6-588.4 143.4-805.7 180.8"/>
				<path id="&lt;Path&gt;" class="s0" d="m4646.9 827c-200.5 7.4-275.4 41.3-585.9-36.9-237.6-61.5-355.6-108.6-634.8-34.6-352.1 100.9-708.5 358.3-1098.7 357.2-351.8-23.9-662.1-664.7-1074.3-841.9-421.5-154.4-553.1 471.5-1220.8 418.1-398.1-38.5-470.9-114.8-1074.3 92.8-93.9 32.1-111.6 35.5-170.9 45.3"/>
				<path id="&lt;Path&gt;" class="s0" d="m4646.9 827c-201.7 8.5-280.1 48.8-610.3-35.4-224.9-58.8-352.1-105.5-634.8-23.3-346.7 108.1-700.3 373-1074.3 367-351-28.9-661.9-673.1-1074.3-856.8-418.1-159.7-553.2 446.5-1220.8 401.8-408-34-462.9-106.7-1074.3 102.4-93.9 31.7-112.1 35-170.9 44.3"/>
				<path id="&lt;Path&gt;" class="s0" d="m4646.9 827c-161.7 7.7-222.4 34.4-415 11.8-184.8-25.7-277.7-69.1-439.5-98.5-477-72.8-821.2 307.2-1294 402.5-191 33.9-263.2 14-390.7-78.2-291.4-227.6-560.9-661.8-878.9-788.1-302.1-99.4-456.8 204-830.1 348.2-310 108.8-504.2 3.5-830.2 13.5-346.2 17.5-568 156.3-781.3 188.8"/>
				<path id="&lt;Path&gt;" class="s0" d="m4646.9 827c-161.4 8.5-208 35-390.6 20.4-178.7-18.4-281.6-61.7-439.5-95.3-485-91.8-817.2 283.1-1269.6 403-212.8 50.6-292.2 23.4-390.6-36.7-288.8-195.3-549.9-636.7-879-812.9-322.7-153.8-472.6 141.5-854.5 299.2-313.4 119.1-513.2 22.9-830.2 29.8-352.7 14.6-587.6 160.8-805.7 192.5"/>
				<path id="&lt;Path&gt;" class="s0" d="m4646.9 827c-163.2 9.1-206.1 37.4-390.6 25.4-178.7-16-279.9-58.7-439.5-93.4-491.6-95.6-822.3 290.4-1269.6 412.7-205.5 50.3-288.8 23.9-390.6-39-287.7-197.1-550.3-638.1-879-816.4-312-151-465.1 113.7-830.1 271.7-316.9 127.5-519.6 40.4-830.1 43.9-362 11.1-605 163.9-830.2 195.1"/>
				<path id="&lt;Path&gt;" class="s0" d="m4646.9 827c-162.3 9.4-205.8 39.6-390.6 30.2-178.4-13.6-279.8-56-439.5-91.3-507.4-101-843.1 314.1-1294 426.9-190.3 41.6-273.2 16.6-390.6-64.5-284.9-214.1-557.8-655.4-879-812.4-303.8-129.7-459.7 131.4-830.1 276.1-315.6 113.9-524.8 27.2-830.2 39.1-341 20.3-584.9 166.9-805.7 195.9"/>
				<path id="&lt;Path&gt;" class="s0" d="m4646.9 827c-169.5 10.2-201.5 42-390.6 35-438.1-27.4-536.9-273.7-1196.3 92.6-278.5 156.1-607.1 370-879 218.5-290.2-183.1-564.6-646.8-903.4-833.7-308.8-152.6-464.8 89-830.1 237.6-319.9 121.2-527.4 43.1-830.1 51.5-342.7 16.2-611.4 171.3-830.2 198.5"/>
				<path id="&lt;Path&gt;" class="s0" d="m4646.9 827c-202.3 12.6-293.2 79.8-610.3 8.3-225-54.1-354.6-118.4-634.8-32.9-394.7 130.9-712.6 468.8-1074.3 436.5-351.6-56.3-684.2-729.1-1098.7-910.9-390.2-145.7-542.8 324.1-1220.8 311.1-184.9-5.6-296.6-23.2-463.9-6.7-306.7 36.8-549.7 170.3-756.9 194.6"/>
				<path id="&lt;Path&gt;" class="s0" d="m4646.9 827c-203.3 13.1-295.4 84.6-610.3 15.2-226.1-53.4-354.9-120-634.8-34.2-397.2 132.5-713.9 481.5-1074.3 445-350.9-60.3-684.4-729.6-1098.7-913.7-391.5-148.8-540.8 308.5-1245.2 293.8-190.5-5.7-299-19.9-463.9 1.4-292.8 44.1-530.9 170.3-732.5 192.5"/>
				<path id="&lt;Path&gt;" class="s0" d="m4646.9 827c-206.3 13.4-295.9 88.3-610.3 20.7-223.6-51.9-343.5-116.1-610.4-42.6-403.8 123.2-708.4 474-1074.3 456.4-360.7-40.1-676-685.4-1098.7-896.8-397.4-175.5-555.3 262.1-1220.8 265.7-184.2-1.1-301.8-17.2-463.9-2.2-305.9 35.3-560.6 176-781.3 198.8"/>
				<path id="&lt;Path&gt;" class="s0" d="m4646.9 827c-194.2 12.6-292.2 87-585.9 30.9-235.2-49.3-345-119.7-610.4-55.1-410.1 112.1-703.8 464.8-1074.3 463.9-366.9-21.3-671.3-640.7-1098.7-874.7-407.1-201-567.7 222.2-1220.8 235.4-193.1 1.5-318.7-16.3-488.3 0.6-303 37.1-557.1 177.3-781.3 199"/>
				<path id="&lt;Path&gt;" class="s0" d="m4646.9 827c-165.1 10.7-199.7 50-390.6 54.9-441.6-1.2-542.5-281.3-1196.3 102.7-289.7 172.1-585.5 392-879 224.9-284.5-181.1-564.7-619.6-903.4-802.4-302.8-147.6-469.8 38.7-830.1 157.1-339.9 104.7-563.8 36.5-854.6 60.9-307.6 32.8-565.7 180.3-805.7 201.9"/>
				<path id="&lt;Path&gt;" class="s0" d="m4646.9 827c-165.2 10.7-199.1 51.3-390.6 58.3-439.8 3.5-543.5-280.9-1196.3 103.7-301.3 179.6-572.6 378.5-854.6 237.4-282.4-160.4-558.1-591-903.4-791.2-308-163.8-476.2 4.7-830.1 121.2-344 107-561.8 45.9-854.5 66.1-321.1 29-571.2 182.9-830.2 204.5"/>
				<path id="&lt;Path&gt;" class="s0" d="m4646.9 827c-195.7 12.6-293.8 96.5-585.9 46-237.1-46.2-354.1-125.4-634.8-50.4-403.9 120.3-691.8 467.5-1049.9 456.4-369.1-32.4-690.6-648-1123.1-853.3-391.1-165.1-557.7 183.8-1220.8 193.3-188 1.1-311.4-10.2-463.9 8.2-285.1 41.1-543.5 181.5-781.3 199.8"/>
				<path id="&lt;Path&gt;" class="s0" d="m4646.9 827c-197.8 12.5-293.4 98.4-585.9 49.1-236.8-45.2-353.1-125-634.8-50.8-403.7 118.7-692.4 463.6-1049.9 449.3-354.4-34.2-648.6-572.1-1074.3-807.2-416.5-211.1-580 137-1245.2 150.4-198.3 2.3-328.1-10.5-488.3 9.6-279.7 42-540.4 182.4-781.3 199.6"/>
				<path id="&lt;Path&gt;" class="s0" d="m4646.9 827c-198.4 12.2-294.3 99.8-585.9 51.8-236.3-44.2-352-124.4-634.8-51.1-407.3 117.9-690.6 458.4-1049.9 440.7-362.8-38.1-665.2-583.5-1098.7-795-404.6-179.2-562 139.4-1245.2 144.2-203.9 0-331.3-10.4-488.3 14-269.2 48.3-516.4 179.5-756.9 195.4"/>
				<path id="&lt;Path&gt;" class="s0" d="m4646.9 827c-206.1 12.3-301 106.8-610.3 50-223.6-45.8-338.5-116.3-610.4-46.9-416.9 118.7-707.7 470.9-1074.3 429.3-347.8-59.7-674.5-597.4-1098.7-778.1-392.8-149.6-542.6 138.1-1245.2 135.7-207.6-1.6-330.7-9.6-488.3 19.6-257.3 53.4-497.5 176.1-732.5 190.4"/>
				<path id="&lt;Path&gt;" class="s0" d="m4646.9 827c-205.7 11.9-301.1 108.4-610.3 52.8-223.2-45-337.5-115.9-610.4-47.3-417.3 117-707.2 465.2-1074.3 420.4-349.3-62.4-670.7-577.8-1098.7-752.9-394-144.4-533.2 121.1-1245.2 116.4-210.9-2.2-333.7-8.7-488.3 20.8-257.5 55.1-491.3 176.5-732.5 189.8"/>
				<path id="&lt;Path&gt;" class="s0" d="m4646.9 827c-206.6 11.6-301.7 109.9-610.3 55.6-223.2-44.3-336.5-115.4-610.4-47.8-415.8 114.7-707.2 459.6-1074.3 411.7-339-63-651-535.5-1074.3-718.2-400.3-157-550.7 91.7-1245.2 87.8-197.4-2-335.5-9.3-488.3 17-259.9 51.1-501.6 181.1-756.9 193.9"/>
				<path id="&lt;Path&gt;" class="s0" d="m4646.9 827c-208 11.2-301.6 110.1-610.3 56.2-223-43.9-335.4-114.5-610.4-48-415.2 112.2-706.7 448.4-1074.3 398.2-345.5-65.6-666.1-533.8-1098.7-693.6-243.7-80.9-406-24.7-659.2 28.9-490.6 100.4-747.3 4.2-1074.3 70.1-248.9 55.8-481.7 176.7-732.5 188.2"/>
				<path id="&lt;Path&gt;" class="s0" d="m4646.9 827c-209.5 10.8-301 110-610.3 56.4-222.3-43.5-334.1-113.6-610.4-48.2-413.8 109.4-705.2 436.5-1074.3 384-342-66.2-641.4-485.4-1074.3-649.6-248.7-85.9-416-37.9-659.2 7.8-515 93.7-764.8-6.3-1098.7 62.3-250.1 57.2-475.8 176.6-732.5 187.3"/>
				<path id="&lt;Path&gt;" class="s0" d="m4646.9 827c-204.6 10-295.4 103.8-585.9 60.8-232.6-40-334.1-114.7-610.4-58.3-408.4 94.4-687.4 400.5-1049.9 381.5-358.6-35.9-645.7-438.5-1098.7-611.9-260.5-91.9-434.7-47.2-683.6-7.9-503.8 76.7-769.4-19.7-1098.7 49.5-252.3 58.7-469.6 176.3-732.5 186.3"/>
				<path id="&lt;Path&gt;" class="s0" d="m4646.9 827c-206.3 9.5-295.2 103.6-585.9 61-232.3-39.7-332.9-113.8-610.4-58.4-405.1 91.6-687.7 389.7-1049.9 367.5-356.5-38.5-640.9-415.8-1098.7-577.8-255.4-83.3-433.1-47.3-659.2-17.5-507.1 65-776.6-26.4-1098.7 34.6-262.3 56.2-476.1 181-756.9 190.6"/>
				<path id="&lt;Path&gt;" class="s0" d="m4646.9 827c-207.6 9.1-294.6 103.5-585.9 61.2-232.2-39.4-331.2-112.9-610.4-58.5-412.8 91.2-702.4 393.5-1074.3 350.6-338.8-54.1-626-395.2-1074.3-540.8-255.8-76.6-438.7-45.7-659.2-23.1-503.5 49.4-775.9-41.6-1098.7 20.8-263.2 57.6-470.4 181.2-756.9 189.8"/>
				<path id="&lt;Path&gt;" class="s0" d="m4646.9 827c-209.3 8.6-294.6 102-585.9 59.3-232.1-39.5-329.9-111.9-610.4-58.4-410 88.5-700.3 379.9-1074.3 334.9-338.1-54.9-618.5-368.3-1074.3-501.9-265.2-71.6-456.7-40.9-683.6-25.5-489.1 30.3-765.5-65.5-1098.7 8.4-258.2 63.2-452.2 175.5-732.5 183.2"/>
				<path id="&lt;Path&gt;" class="s0" d="m4646.9 827c-211 8.1-294.3 100.4-585.9 57.2-232.1-39.9-328.5-111-610.4-58.3-407.6 85.9-697.5 366-1074.3 319-335.6-55.3-610.6-341.5-1074.3-462.4-256.2-61.5-448.8-40-659.2-31.1-476.8 17.8-748.7-73-1074.3-16.7-270.1 53.9-474.2 184.7-781.3 192.3"/>
				<path id="&lt;Path&gt;" class="s0" d="m4646.9 827c-180.1 6.4-194.4 49.7-390.6 65.3-439.9 21.9-476.7-246.4-1196.3 65.2-323.2 140.9-527.5 239.9-854.6 124.1-261.6-99-504.9-279.9-879-371.9-320.4-73.2-541.2-31.7-854.5-42.9-351.6-15.4-614.8-81.8-903.4-30.9-267 54-470.9 184.2-781.3 191.1"/>
				<path id="&lt;Path&gt;" class="s0" d="m4646.9 827c-214 7.1-293.1 97.2-585.9 52.8-234.1-40.7-335.2-113.4-634.8-53.1-406.4 91-686.3 343.7-1074.3 278.1-326.6-66.2-593.8-296.5-1074.3-383.5-264.1-43.8-472.2-29.4-683.6-35.8-303.1-11.2-460.6-51.3-708.1-65.1-536.3-23.8-639.2 197.6-1098.7 206.6"/>
				<path id="&lt;Path&gt;" class="s0" d="m4646.9 827c-216.5 6.6-293 95.6-585.9 50.7-232.5-40.8-334-112.3-634.8-53.2-402.7 87.9-682.6 329.3-1074.3 262.3-322-65.1-566.5-260.3-1049.9-339.5-255.8-38.7-497.3-33.9-683.6-44.1-303.3-18.5-463.1-61.9-708.1-80.1-552.7-34.5-652.3 195.9-1123.1 203.9"/>
				<path id="&lt;Path&gt;" class="s0" d="m4646.9 827c-218.6 6.1-292.4 93-585.9 46.9-233.1-41.7-332.9-111.3-634.8-53-176.1 37.7-298.6 92.4-488.3 163.3-574.5 210.6-687.7 37.4-1245.2-131.6-448.4-131.4-716.6-95.8-1123.1-135.7-453.6-47.9-727.4-161.9-1123.2-46.1-272.1 83.5-395.4 152.2-659.2 156.2"/>
				<path id="&lt;Path&gt;" class="s0" d="m4646.9 827c-220.5 5.7-291.7 90.3-585.9 42.9-232.3-42.3-322-106.3-610.4-57.3-176.5 33.5-304.5 87.2-488.3 153.6-577.9 205.7-668.1 50.2-1245.2-101.9-500.2-127.1-771.5-61.9-1318.4-157.1-284.4-50.7-478.6-101.2-732.5-79.8-317.9 34.1-503.7 194.4-879 199.6"/>
				<path id="&lt;Path&gt;" class="s0" d="m4646.9 827c-223.3 5.2-291.2 87.6-585.9 38.9-232.4-43.1-321.1-105.4-610.4-57-385.1 72.1-659.1 277.3-1049.9 232.8-318.1-44.9-509.8-179-1049.8-225.1-216.3-17.1-486.6-19-781.3-65.7-279.5-46.4-464.8-107.9-708.1-124.7-468.6-24.3-623 195.3-1074.3 200.8"/>
				<path id="&lt;Path&gt;" class="s0" d="m4646.9 827c-225.3 4.8-290.6 84.9-585.9 34.9-232.4-43.9-320.3-104.5-610.4-56.6-399.2 73.4-661.2 273.9-1074.3 215.4-335.2-54.8-481.1-161-1074.3-186-947.7-36.6-921.1-150.9-1391.7-202.4-511.4-47.4-636.6 189.6-1123.1 194.7"/>
				<path id="&lt;Path&gt;" class="s0" d="m4646.9 827c-227.2 4.3-290 82.2-585.9 30.9-233.5-44.9-319.3-103.6-610.4-56.3-401.9 72.8-662.8 268-1098.7 197.6-236.6-42.2-391-98.7-683.6-127.1-197.4-17.5-336.1-13.9-512.8-17.6-645.5-17-885.7-190.9-1294-224.3-454.1-28.5-613.7 192.6-1074.3 196.8"/>
				<path id="&lt;Path&gt;" class="s0" d="m4646.9 827c-229.5 3.9-289.7 78.7-585.9 25.7-237.3-46.6-327-106.5-634.8-51-387.7 76.7-639.6 251-1074.3 183.4-228.4-38.8-404.2-91.8-708.1-105.9-202-7.8-333.6 1.5-512.7-1.1-590.4-13.9-858.7-208.5-1269.6-244.8-448.8-30.7-605.5 189.9-1074.3 193.7"/>
				<path id="&lt;Path&gt;" class="s0" d="m4646.9 827c-233 3.6-289.2 75.2-585.9 20.5-238.3-48-326.8-105.7-634.8-50.2-187.9 36.9-319.2 88.9-512.8 139.8-544 137.7-646.6-50.1-1294-48.5-406.6 3.9-609.1 58.4-1098.7-83.3-438.1-129.9-662-246.1-1098.7-114.7-308.3 95.8-380.6 134.6-634.8 136.4"/>
				<path id="&lt;Path&gt;" class="s0" d="m4646.9 827c-232.8 3.2-289 71.7-585.9 15.2-239.4-49.3-326.8-104.7-634.8-49.4-385.8 75.6-616 230.3-1074.3 164.6-703.1-107.3-677.2-46.7-1172-31.8-562.1 11.1-844.6-219.1-1269.6-280.6-470-58.1-631.9 179-1123.1 182"/>
				<path id="&lt;Path&gt;" class="s0" d="m4646.9 827c-237.7 2.9-288.2 68.3-585.9 10-236.2-49.8-320-100.4-610.4-53-395 70.8-613.4 226.2-1098.7 159.5-648.8-94.1-738.4-14.2-1172 5.6-559.3 18.6-852.3-245.8-1294-303.8-443.9-48.3-612.2 179.1-1098.7 181.7"/>
				<path id="&lt;Path&gt;" class="s0" d="m4646.9 827c-199.7 2-212.5 34-390.6 30.2-174.7-8.4-277.7-49.1-439.5-81.7-304.3-54.8-566.2 58.2-878.9 130.8-371.8 82-511 23.3-805.7-2.3-371.1-28.7-570.9 33.4-879 63.2-733.8 63.1-1050.1-413-1660.3-311.6-291.3 55.4-439.3 169.8-805.7 171.4"/>
				<path id="&lt;Path&gt;" class="s0" d="m4646.9 827c-243.9 2.2-286.3 61.2-585.9-1.1-236.8-52.3-328.3-102-634.8-46.5-190.8 37.4-316.8 84.3-512.8 125.7-282.2 56.3-427 30.4-634.8 6.2-489-53.8-710.4 49.3-1074.2 81.4-541.7 39.8-823.7-245.7-1269.6-332.1-461.5-78.7-637.9 164.4-1147.6 166.4"/>
				<path id="&lt;Path&gt;" class="s0" d="m4646.9 827c-247.2 2-286.7 57.1-585.9-7-236.9-53.6-329-101.2-634.8-45.1-182.1 35.9-298.3 78.2-488.3 118.8-278.2 56.2-420.3 34.8-634.8 11.7-481.9-48.6-711.5 64-1074.3 106.3-557.1 56.7-834.8-253.1-1294-346.3-451.8-80.9-636.8 159.9-1147.6 161.6"/>
				<path id="&lt;Path&gt;" class="s0" d="m4646.9 827c-249.6 1.7-287.5 53-585.9-12.9-237.6-55-330.1-100.4-634.8-43.8-444.9 88.8-515.2 187.6-1098.7 128.7-490.2-46.2-729.1 85.2-1098.7 133.8-554.1 64-829.1-264-1294-362.7-443.8-83-633.6 155.5-1147.6 156.9"/>
				<path id="&lt;Path&gt;" class="s0" d="m4646.9 827c-254.8 1.4-287.1 49.1-585.9-18.8-237.6-56.3-330.8-99.6-634.8-42.4-189.7 38.1-296.2 77.7-488.3 115.4-280.3 51.5-423.4 23.8-634.8 6.8-472.5-32.7-726.2 121-1098.7 169.2-530.2 58.4-809.6-280.4-1269.6-382.3-434.6-85-629.8 150.3-1147.6 152.1"/>
				<path id="&lt;Path&gt;" class="s0" d="m4646.9 827c-257 1.1-288.6 44.8-585.9-24.7-237.4-57.6-331.7-98.8-634.8-41.1-188.5 38.3-299 78.3-488.3 113.8-281.7 49.1-430 17.9-634.8 4.2-452.6-24.2-706.8 136.5-1074.3 196-538.3 76.8-805.1-270.6-1269.6-390-417-96.1-679.7 124.7-1049.9 140.5-48.8 1.2-60.7 1.1-122.1 1.3"/>
				<path id="&lt;Path&gt;" class="s0" d="m4646.9 827c-263.4 0.9-288.8 40.6-585.9-30.9-238.6-59.2-333.4-97.9-634.8-39.4-178.1 36.9-285 74.3-463.9 109-279.5 50.8-423.4 22.9-634.8 9.1-460.9-23.9-723.9 155.3-1098.7 220.5-538.3 82.9-801-279.6-1269.6-404.5-411.4-98.5-685.4 122.7-1049.9 135.1-48.7 1.1-61.1 1-122.1 1.1"/>
				<path id="&lt;Path&gt;" class="s0" d="m4646.9 827c-264.9 0.7-290.2 36.1-585.9-37.1-238.9-60.7-334.3-97.2-634.8-37.7-184.6 38.9-302 80.3-488.3 113.1-282.3 45.9-428.4 10.2-634.8 2.5-440.3-8.8-702.3 178.3-1074.3 247.6-538.2 88.9-797-288.6-1269.6-419.1-405.1-100.5-691.5 120.7-1049.9 129.9-48.5 0.8-61.2 0.7-122.1 0.8"/>
				<path id="&lt;Path&gt;" class="s0" d="m4646.9 827c-323 0.8-282.7 36.1-659.2-62.4-194.2-50.5-302.2-72.5-585.9-11.6-186.7 41.9-304 82.5-488.4 111.3-282.1 40.1-425.1-1.5-634.8-2.2-444.2 7-715.6 222.7-1098.7 281.4-521.3 67.2-787.8-343.9-1269.6-453.4-388.3-76.5-596.7 136-1123.1 136.9"/>
				<path id="&lt;Path&gt;" class="s0" d="m4646.9 827c-338.5 0.7-275.5 31.6-683.6-75.3-442.4-112.7-633.6 51.1-1074.2 110.9-282.6 33.9-416-12.4-634.9-4.9-255 14-447 96.2-683.6 189.3-412.2 160-614.4 183.2-976.6-13.3-441.5-245.8-612.6-428.9-1098.7-324.3-393.8 88.9-369.6 117.1-708.1 117.6"/>
				<path id="&lt;Path&gt;" class="s0" d="m4646.9 827c-247 0-286.7 18.7-512.6-36.4-114.5-29.1-166.5-46.8-268.7-68.5-375.4-72.2-645 116.4-1074.2 144.1-276.3 13.4-386.3-37.9-634.8-2.8-254.4 41.3-432.4 138.4-683.7 236.6-440.7 167.8-627.9 104.9-976.6-107.6-453.3-279.1-597.4-372-1049.9-268.2-465.7 110.2-404.2 102.8-659.2 102.8"/>
			</g>
		</g>
	</g>
</svg>